<?xml version="1.0" encoding="UTF-8"?>
<svg version="1.1" viewBox="0 0 1600 1600" xmlns="http://www.w3.org/2000/svg">
<path transform="translate(774 -.133)" d="m0 0c2.33-6.75e-4 4.66-0.00165 6.99-0.0029 4.85-0.00147 9.71 6.47e-4 14.6 0.00534 6.23 0.00573 12.5 0.00239 18.7-0.00357 4.8-0.00361 9.59-0.00247 14.4 1.28e-4 2.3 6.68e-4 4.59-1.53e-4 6.89-0.00248 3.2-0.00253 6.39 0.00132 9.59 0.0069 0.951-0.00202 1.9-0.00405 2.88-0.00613 0.869 0.00282 1.74 0.00564 2.63 0.00854 0.755 3.77e-4 1.51 7.54e-4 2.29 0.00114 1.97 0.126 1.97 0.126 4.97 1.13 1.71 0.0436 3.42 0.0398 5.12 0 1.62-0.0377 3.25-0.0466 4.88 0l1 1c1.9 0.205 3.8 0.351 5.71 0.473 7.02 0.491 14 1.19 21 1.96 1.15 0.122 2.29 0.244 3.47 0.369 5.87 0.648 11.6 1.48 17.4 2.71 5.51 1.08 11.1 1.66 16.7 2.34 0.931 0.12 1.86 0.24 2.82 0.363 0.832 0.102 1.66 0.205 2.52 0.311 2.66 0.515 4.93 1.45 7.43 2.47 2.11 0.479 2.11 0.479 4.22 0.746 0.78 0.113 1.56 0.227 2.36 0.344 0.817 0.115 1.63 0.229 2.48 0.348 6.48 0.964 12.8 2.12 19.1 3.81 4.05 1.08 8.14 1.98 12.2 2.91 9.64 2.26 19.2 4.77 28.8 7.34 1.11 0.295 2.22 0.59 3.37 0.895 5.49 1.47 10.9 3.03 16.3 4.87 2.28 0.774 4.57 1.49 6.86 2.21 10.7 3.33 21.3 6.89 31.9 10.7 1.15 0.407 2.3 0.815 3.48 1.23 6.46 2.32 12.8 4.8 19.2 7.48 2.9 1.23 5.82 2.42 8.74 3.6 4.12 1.71 8.09 3.59 12.1 5.62 3.62 1.85 7.15 3.44 11 4.75 14.3 5 27.8 12.6 41.2 19.7 3.13 1.68 6.27 3.34 9.41 5.01 2.32 1.24 4.64 2.48 6.96 3.71 1.64 0.868 1.64 0.868 3.3 1.75 5.54 2.97 10.8 6.07 16 9.63 3.18 2.12 6.51 3.92 9.87 5.75 7.9 4.37 15.7 8.97 22.7 14.7 2.41 1.92 4.86 3.54 7.48 5.16 11.5 7.23 22.3 15.2 33.1 23.4 2.61 1.97 5.23 3.9 7.86 5.84 10.9 8.17 21.3 16.8 31.2 26.1 4.94 4.5 10.2 8.59 15.5 12.6 1.1 0.942 1.1 0.942 2.21 1.9v2l1.62 0.688c5.21 2.88 9.21 7.14 13.4 11.3 1.69 1.67 3.39 3.34 5.08 5.01 1.42 1.41 2.85 2.82 4.27 4.23 0.983 0.972 1.97 1.94 2.95 2.91 1.43 1.41 2.86 2.82 4.28 4.24 0.848 0.837 1.7 1.67 2.57 2.54 1.85 2.08 1.85 2.08 1.85 4.08l1.94 0.812c2.06 1.19 2.06 1.19 3.06 4.19l4 2 1 3c0.99 0.33 1.98 0.66 3 1 1.37 1.53 2.68 3.13 3.94 4.75 3.53 4.43 7.19 8.63 11.1 12.8 4.62 4.92 8.95 9.98 13.2 15.3 1.75 2.22 1.75 2.22 3.59 3.92 1.25 1.32 1.25 1.32 1.25 3.32h2c1.31 1.64 2.55 3.34 3.75 5.06 2.46 3.48 4.92 6.82 7.75 10 2.5 2.94 2.5 2.94 2.5 4.94h2c1.04 1.64 2.03 3.31 3 5 1.31 1.83 2.66 3.65 4.01 5.45 0.988 1.55 0.988 1.55 0.988 3.55h2c0.943 1.33 1.87 2.66 2.74 4.04 1.46 2.28 3.01 4.49 4.57 6.71 0.911 1.3 0.911 1.3 1.84 2.62 1.18 1.67 2.35 3.34 3.54 5 4.12 5.82 8.01 11.8 11.8 17.8 1.74 2.73 3.5 5.44 5.27 8.14 4.56 6.95 8.99 13.9 12.9 21.2 1.36 2.55 2.82 5.01 4.32 7.47 2.54 4.19 4.91 8.44 7.23 12.7 1.38 2.54 2.78 5.08 4.2 7.6 0.434 0.777 0.868 1.55 1.32 2.35 0.854 1.53 1.71 3.05 2.57 4.58 12.3 21.9 22.6 45.2 31.8 68.6 0.995 2.45 2.1 4.84 3.25 7.22 3.91 8.47 6.77 17.4 9.71 26.2 1.6 4.78 3.34 9.46 5.41 14 1.57 3.85 2.64 7.66 3.69 11.7 0.845 3.13 1.78 6.23 2.75 9.32 2.13 6.86 4.12 13.8 6.06 20.7 0.257 0.913 0.513 1.83 0.777 2.77 3.87 14 7.08 28 9.81 42.2 0.551 3.84 0.551 3.84 2.42 7.04 0.345 1.67 0.635 3.35 0.902 5.03 0.252 1.56 0.252 1.56 0.51 3.15 0.173 1.1 0.347 2.19 0.525 3.32 1.04 6.52 2.12 13 3.6 19.4 0.776 3.51 1.35 7.04 1.9 10.6 0.125 0.799 0.25 1.6 0.378 2.42 2.32 15.2 4.27 30.5 4.97 45.9 0.134 3.1 0.134 3.1 0.693 5.65 0.76 5.22 0.852 10.4 1.02 15.7 0.0833 2.39 0.167 4.78 0.25 7.17 0.126 3.76 0.251 7.53 0.375 11.3 0.121 3.64 0.248 7.27 0.375 10.9 0.0532 1.7 0.0532 1.7 0.107 3.44 0.0367 1.04 0.0735 2.08 0.111 3.16 0.0303 0.921 0.0606 1.84 0.0918 2.79-0.0368 2.08-0.0368 2.08 1.19 3.09 0.0992 1.59 0.131 3.18 0.133 4.77 0.00129 0.971 0.00258 1.94 0.00391 2.94-0.00387 1.02-0.00773 2.05-0.0117 3.1 0.00387 1.01 0.00773 2.02 0.0117 3.06-0.00129 0.975-0.00258 1.95-0.00391 2.96-0.00169 1.34-0.00169 1.34-0.00342 2.71-0.129 2.46-0.129 2.46-0.623 4.34-0.525 2.19-0.675 4.15-0.74 6.4-0.0272 0.847-0.0544 1.69-0.0825 2.57-0.0259 0.918-0.0518 1.84-0.0784 2.78-0.0663 2.01-0.133 4.01-0.201 6.02-0.0349 1.06-0.0698 2.11-0.106 3.2-0.613 18.1-1.58 36.1-3.3 54.1-0.0837 0.91-0.167 1.82-0.254 2.76-0.238 2.55-0.489 5.1-0.746 7.65-0.0708 0.753-0.142 1.51-0.215 2.28-0.553 5.15-0.553 5.15-2.79 7.38-0.234 2.18-0.361 4.37-0.438 6.56-0.387 7.93-1.66 15.6-3.16 23.4-0.376 1.97-0.732 3.94-1.09 5.91-2.13 11.8-4.7 23.5-7.31 35.2-0.177 0.791-0.354 1.58-0.536 2.4-2.1 9.33-4.49 18.5-7.1 27.7-1.01 3.59-1.99 7.18-2.95 10.8-0.4 1.5-0.4 1.5-0.809 3.03-0.522 1.96-1.04 3.92-1.55 5.88-0.239 0.891-0.477 1.78-0.723 2.7-0.209 0.791-0.418 1.58-0.634 2.4-0.698 2.07-0.698 2.07-2.7 5.07-0.514 1.99-0.964 3.99-1.38 6-1.14 5.17-2.58 10-4.46 14.9-0.885 2.34-1.73 4.68-2.54 7.04-2.81 8.16-5.84 16.1-9.32 24-1.03 2.38-1.99 4.75-2.87 7.2-1.49 4.12-3.35 8.05-5.18 12-1.16 2.57-2.22 5.16-3.25 7.79-2.14 5.43-4.55 10.7-7 16-0.452 0.998-0.905 2-1.37 3.02-3.7 8.11-7.63 16.1-11.7 24-1.03 2.04-2.05 4.09-3.06 6.14-1.39 2.78-2.82 5.53-4.35 8.23l-2.56 4.56c-0.402 0.732-0.804 1.46-1.22 2.22-2.59 4.72-5.31 9.35-8.1 14-2.35 3.94-4.61 7.92-6.88 11.9-1.89 3.33-3.82 6.63-5.8 9.91-0.46 0.779-0.92 1.56-1.39 2.36-3.93 6.62-7.88 13.3-12.7 19.3-3.21 4.07-5.77 8.26-6.88 13.4 0.9 0.438 1.8 0.877 2.73 1.33 8.27 4.07 16.4 8.34 24.5 12.8 6.81 3.75 13.6 7.3 20.7 10.5 5.79 2.62 11.4 5.54 17.1 8.4 1.92 0.968 3.85 1.93 5.78 2.88 9.79 4.85 19.5 9.88 29.2 15 4.2 2.2 8.41 4.36 12.6 6.51 1.06 0.541 2.12 1.08 3.21 1.64 2.04 1.04 4.09 2.08 6.14 3.11 0.916 0.47 1.83 0.94 2.78 1.42 0.812 0.411 1.62 0.821 2.46 1.24 1.86 1.25 1.86 1.25 2.86 4.25 0.99 0.33 1.98 0.66 3 1-1.69 1.69-3.94 1.41-6.27 1.65-1.12 0.119-2.24 0.237-3.39 0.359-1.18 0.121-2.37 0.242-3.59 0.367-8 0.82-16 1.78-23.9 2.96-15.1 2.22-30.3 3.91-45.5 5.69-4.26 0.499-8.52 1-12.8 1.5-1.28 0.15-1.28 0.15-2.58 0.304-1.71 0.202-3.43 0.403-5.14 0.605-2.55 0.3-5.1 0.6-7.65 0.899-11.3 1.33-22.6 2.67-33.8 4.04-18.1 2.19-36.3 4.32-54.4 6.39-22.7 2.59-45.4 5.24-68.1 7.96-2.07 0.248-4.14 0.497-6.21 0.745-12.5 1.5-25 3-37.5 4.51-6.3 0.761-12.6 1.52-18.9 2.27-3.28 0.393-6.57 0.788-9.85 1.19-3.6 0.437-7.21 0.868-10.8 1.3-1.05 0.129-2.11 0.259-3.19 0.392-5.48 0.648-10.8 1.01-16.3 0.874-1.28-3.84-0.835-7.2-0.512-11.2 0.13-1.74 0.26-3.48 0.389-5.22 0.071-0.926 0.142-1.85 0.215-2.8 1.58-20.7 2.55-41.4 3.26-62.1 0.0553-1.56 0.0553-1.56 0.112-3.14 0.0689-1.95 0.134-3.9 0.194-5.86 0.0304-0.86 0.0608-1.72 0.0921-2.61 0.0364-1.13 0.0364-1.13 0.0735-2.28 0.176-1.84 0.176-1.84 1.18-3.84 0.197-1.93 0.336-3.87 0.449-5.81 0.0736-1.23 0.147-2.45 0.223-3.72 0.0769-1.35 0.154-2.71 0.23-4.06 0.0825-1.4 0.165-2.8 0.249-4.2 0.222-3.75 0.438-7.5 0.653-11.3 0.223-3.88 0.45-7.75 0.676-11.6 0.354-6.07 0.705-12.1 1.05-18.2 0.324-5.65 0.654-11.3 0.991-17 0.98-16.5 1.76-32.9 2.13-49.4 0.047-1.87 0.047-1.87 0.095-3.78 0.0239-1.1 0.0479-2.2 0.0725-3.34 0.174-2.59 0.174-2.59 1.17-4.59 0.951-7.63 1.16-15.3 1.38-23 0.428-12.9 1.34-25.7 2.26-38.5 1.24-17.3 2.06-34.7 2.72-52.1 0.0368-0.943 0.0736-1.89 0.112-2.86 0.0685-1.77 0.133-3.53 0.194-5.3 0.128-3.29 0.294-6.09 1.34-9.23 0.0387-1.67 0.045-3.33 0-5h2c0.812 1.62 1.62 3.25 2.44 4.87 0.719 1.44 1.44 2.88 2.16 4.31 1.81 3.61 3.61 7.22 5.4 10.8 3.42 6.9 6.93 13.7 10.6 20.5 3.16 5.91 6.11 11.9 8.91 18 3.8 8.27 7.63 16.6 12.5 24.3 3.08 4.98 5.5 10.2 7.95 15.5 2.35 5.08 4.78 10.1 7.3 15.1 0.332 0.661 0.664 1.32 1.01 2 1.46 2.91 2.94 5.81 4.42 8.71 0.458 0.898 0.915 1.8 1.39 2.72 0.392 0.761 0.784 1.52 1.19 2.3 0.812 1.82 0.812 1.82 0.812 3.82h3l3-6h2c0.244-0.846 0.487-1.69 0.738-2.56 1.39-3.8 3.3-7.04 5.45-10.4 3.81-6.17 7.15-12.4 10.3-19 1.38-2.78 2.9-5.37 4.51-8.02 4.27-7.73 8.54-15.5 12-23.6 1.12-2.6 2.32-5.15 3.53-7.71 4.59-9.71 8.84-19.5 12.5-29.6 0.588-1.63 0.588-1.63 1.19-3.29 1.87-5.2 3.73-10.4 5.44-15.7 0.844-2.58 1.76-4.94 2.88-7.44 1.62-3.9 2.68-7.78 3.75-11.9 0.683-2.51 1.46-4.94 2.32-7.39 1.26-3.67 2.12-7.34 2.91-11.1 0.529-2.25 1.21-4.37 1.96-6.55 1.9-5.47 3.19-11.1 4.56-16.7 0.255-1.05 0.509-2.09 0.772-3.17 4.19-17.2 4.19-17.2 6.81-34.7 0.331-2.47 0.777-4.68 1.4-7.07 3.7-14.2 3.54-29.5 4.02-44.1h2c0.842-17.6 1.2-35.1 1.19-52.8-6.04e-4 -1.23-0.00121-2.46-0.00183-3.72-0.0239-17.9-0.302-35.7-2.19-53.5-0.129-1.29-0.258-2.58-0.391-3.92-2.74-27.2-6.67-54.6-13.6-81.1-0.491-1.92-0.982-3.84-1.47-5.77-2.14-8.33-4.31-16.6-6.81-24.9-0.673-2.22-1.32-4.44-1.96-6.67-2-6.93-4.04-13.8-6.59-20.6-0.966-2.61-1.89-5.23-2.79-7.87-2.79-8.14-5.56-16.2-9.27-23.9-1.07-2.27-2.01-4.56-2.91-6.9-4.71-11.9-10-23.5-16.2-34.7-2.06-3.79-3.97-7.64-5.87-11.5-13.3-26.9-29.2-52.6-47.4-76.5-2.24-2.96-4.4-5.97-6.5-9.04-7.77-11.2-16.9-21.6-25.9-31.8-2.31-2.81-2.31-2.81-2.31-4.81h-2c-1.23-1.22-1.23-1.22-2.75-3.06-8.58-10.1-17.8-19.6-27.1-28.9-1.03-1.04-1.03-1.04-2.09-2.1-3.94-3.93-7.99-7.67-12.2-11.3-2.47-2.14-4.87-4.37-7.27-6.59-4.16-3.81-8.43-7.31-13-10.6-0.522-0.454-1.04-0.908-1.58-1.38v-2c-0.523-0.226-1.05-0.451-1.59-0.684-3.28-1.79-6.12-4.07-9.04-6.38-4-3.26-4-3.26-8.38-5.94v-2l-2.12-0.688c-2.51-1.14-3.96-2.11-6-3.88-2.68-2.58-2.68-2.58-5.88-3.44v-2l-2-0.625c-3.28-1.5-5.76-3.36-8.6-5.55-19.2-14.5-40.7-27.5-62.4-37.8-5.84-2.87-11.6-5.78-17.3-8.92-8.07-4.42-16.3-7.96-24.9-11.4-2.23-0.898-4.42-1.86-6.61-2.85-1.4-0.625-2.79-1.25-4.19-1.88-0.837-0.376-1.67-0.753-2.54-1.14-7.09-3.08-14.3-5.48-21.7-7.72-4.75-1.45-9.23-3.13-13.8-5.14-5.85-2.23-11.9-3.8-17.9-5.38-4.89-1.28-9.73-2.68-14.6-4.12-10.7-3.19-21.5-6.16-32.5-8.5-0.644-0.168-1.29-0.335-1.95-0.508-2.21-0.53-4.39-0.867-6.64-1.18-0.867-0.123-1.73-0.246-2.63-0.373-1.81-0.253-3.62-0.503-5.43-0.75-6.83-0.979-6.83-0.979-9.87-2.23-3.99-1.55-8.12-1.63-12.4-1.96-6.15-0.53-12.3-1.1-18.4-2-9.79-1.37-19.6-2.05-29.5-2.76-2.17-0.159-4.33-0.33-6.5-0.514-11-0.868-22-0.876-33.1-0.854-3.29 0.00542-6.58-5.57e-6 -9.87-0.00635-2.1 6.6e-4 -4.21 0.00194-6.31 0.00391-0.977-0.00202-1.95-0.00405-2.96-0.00613-1.37 0.00473-1.37 0.00473-2.76 0.00955-1.19 0.00119-1.19 0.00119-2.41 0.00241-2.52 0.138-4.85 0.619-7.32 1.13-2.03 0.0933-4.05 0.182-6.08 0.24-11.2 0.326-22.2 1.45-33.4 2.7-1.15 0.128-1.15 0.128-2.32 0.259-18.4 2.04-18.4 2.04-36.5 5.25-3.33 0.681-6.68 1.27-10 1.87-16.1 2.97-32 7.14-47.7 11.7-0.716 0.206-1.43 0.412-2.17 0.625-18.6 5.3-18.6 5.3-36.8 11.6-4.14 1.56-8.33 2.98-12.5 4.43-8.84 3.09-17.4 6.66-26 10.5-0.857 0.387-1.71 0.775-2.6 1.17-12 5.45-23.9 11.1-35.7 17-0.631 0.313-1.26 0.627-1.91 0.949-4.2 2.11-8.27 4.39-12.3 6.74-1.75 0.942-3.5 1.88-5.25 2.81-4.89 2.65-9.56 5.56-14.2 8.57-8.77 5.61-8.77 5.61-11.5 5.61v2c-1.84 1.26-1.84 1.26-4.38 2.69-8.41 4.88-16.2 10.7-24 16.4-1.81 1.3-3.66 2.56-5.53 3.79-4.18 2.83-8.06 5.97-12 9.13-3.27 2.6-6.54 4.83-10.1 6.98-1.03 0.968-2.03 1.97-3 3-1.05 0.928-2.12 1.84-3.19 2.75-2.58 2.19-5.14 4.4-7.69 6.62-0.66 0.576-1.32 1.15-2 1.75-1.53 1.35-3.05 2.72-4.56 4.1-0.804 0.731-1.61 1.46-2.44 2.21-0.74 0.679-1.48 1.36-2.24 2.06-1.88 1.5-1.88 1.5-3.88 1.5-0.264 0.601-0.529 1.2-0.801 1.82-1.25 2.28-2.38 3.43-4.39 5.05-0.621 0.514-1.24 1.03-1.88 1.56-0.637 0.517-1.27 1.03-1.93 1.57-4.3 3.51-8.06 7.07-11.6 11.3-2.72 3.23-5.82 6.09-8.84 9.04-2.58 2.64-4.91 5.4-7.23 8.27-0.44 0.447-0.879 0.895-1.33 1.36h-2c-0.34 0.804-0.34 0.804-0.688 1.62-1.77 3.2-3.85 5.67-6.31 8.38h-2c-0.241 0.563-0.482 1.13-0.73 1.71-1.53 2.76-3.4 4.7-5.58 6.98-6.79 7.34-12.7 15.3-18.7 23.3-0.496 0.656-0.992 1.31-1.5 1.99-3.7 4.9-7.28 9.87-10.8 14.9-0.537 0.758-1.07 1.52-1.63 2.3-0.511 0.724-1.02 1.45-1.55 2.2-0.459 0.651-0.919 1.3-1.39 1.97-1.18 1.67-1.18 1.67-2.12 3.66h-2c-0.268 0.715-0.536 1.43-0.812 2.17-1.2 2.87-2.6 5.47-4.19 8.14-0.516 0.883-1.03 1.77-1.56 2.68-0.712 0.996-0.712 0.996-1.44 2.01h-2l-0.562 2.38c-1.27 3.19-2.44 5.16-4.44 7.88-9.43 13-16.6 28-23 42.8h-2l-1 3.5c-1.79 5.41-4.36 10.3-6.95 15.4-2.55 5.01-4.8 10.1-6.9 15.3-1.17 2.85-2.42 5.63-3.71 8.43-3.34 7.31-6.23 14.7-8.75 22.3-1.71 5.16-3.44 10.3-5.19 15.5-4.44 13.1-8.75 26.2-12 39.6-0.471 1.93-0.967 3.85-1.47 5.78-1.05 4.07-2.05 8.15-3.03 12.2-0.223 0.932-0.446 1.86-0.676 2.82-6.42 27.1-10.8 54.5-13.1 82.2-0.136 1.66-0.272 3.31-0.408 4.97-0.272 3.33-0.536 6.67-0.794 10-0.123 1.54-0.246 3.09-0.369 4.63-0.0541 0.725-0.108 1.45-0.164 2.2-0.407 5.03-0.407 5.03-1.52 6.14h1c-0.0209 1.16-0.0419 2.31-0.0635 3.5-0.416 25.4 0.161 50.6 2 75.9 0.0914 1.27 0.183 2.55 0.277 3.86 0.263 3.61 0.535 7.22 0.813 10.8 0.0824 1.09 0.165 2.18 0.25 3.3 0.08 0.988 0.16 1.98 0.242 2.99 0.0688 0.866 0.138 1.73 0.209 2.62 0.0712 1.96 0.0712 1.96 1.27 2.96 0.36 2.07 0.664 4.15 0.945 6.23 0.187 1.34 0.376 2.68 0.564 4.02 0.0997 0.713 0.199 1.43 0.302 2.16 2.46 17.4 5.98 34.5 10.2 51.6 0.227 0.924 0.454 1.85 0.688 2.8 4.85 19.5 10.6 38.8 17.3 57.8 0.248 0.703 0.495 1.41 0.75 2.13 1.69 4.79 3.45 9.55 5.25 14.3 0.257 0.684 0.514 1.37 0.779 2.07 3.73 9.9 7.76 19.6 12.4 29.1 0.88 1.85 1.74 3.7 2.59 5.56 3.21 7.03 6.62 13.9 10.3 20.7 2.22 4.1 4.31 8.24 6.35 12.4 3.43 6.94 7.32 13.6 11.3 20.2 0.778 1.3 1.56 2.61 2.33 3.91 0.393 0.656 0.785 1.31 1.19 1.99 2.81 4.78 2.81 4.78 2.81 7.01h2c1.37 1.98 1.37 1.98 2.88 4.62 3.69 6.44 7.87 12.5 12.2 18.5 0.434 0.607 0.868 1.21 1.31 1.84 1.77 2.48 3.55 4.94 5.43 7.34 1.19 1.7 1.19 1.7 1.19 3.7h2l1.5 2.88c2.94 5.14 6.75 9.56 10.5 14.1 1.25 1.58 2.5 3.17 3.75 4.75 3.93 4.93 8.05 9.7 12.2 14.4 2.44 2.8 4.61 5.34 6.04 8.82h2c1.3 1.29 1.3 1.29 2.88 3.19 3.28 3.86 6.67 7.6 10.1 11.3 3.32 3.57 6.6 7.16 9.75 10.9 4.24 4.9 9.13 8.99 14.2 12.9l2 1.69v2h2c-0.126 6.29-2.15 10.7-5.06 16.2-2.47 4.75-4.61 9.57-6.63 14.5-0.273 0.672-0.546 1.34-0.827 2.04-0.834 2.07-1.66 4.14-2.49 6.21-0.309 0.765-0.618 1.53-0.936 2.32-2.63 6.53-5.15 13.1-7.63 19.7-0.386 1.02-0.772 2.03-1.17 3.08-2.08 5.52-3.93 11-5.57 16.7-0.996 3.18-2.37 6.18-3.7 9.23-1.05 3-2 6.03-2.94 9.06-0.26 0.832-0.52 1.66-0.788 2.52-1.9 6.1-3.69 12.2-5.41 18.4-0.737 2.61-1.5 5.2-2.3 7.79-1.69 5.58-3.23 11.2-4.76 16.8-0.89 3.24-1.81 6.43-2.89 9.61-1.2 3.69-1.75 7.39-2.35 11.2-0.562 2.59-0.562 2.59-1.54 4.46-1.09 2.28-1.5 4.18-1.87 6.67-0.129 0.844-0.258 1.69-0.391 2.56-0.126 0.873-0.253 1.75-0.383 2.64-0.134 0.888-0.268 1.78-0.406 2.69-0.329 2.19-0.652 4.37-0.969 6.56-4.5 0-4.5 0-7.28-2.3-0.596-0.483-1.19-0.966-1.81-1.46-0.612-0.511-1.22-1.02-1.85-1.55-4.66-3.88-4.66-3.88-9.69-7.23-2.91-1.79-4.99-4.01-7.37-6.46-1.71-1.44-3.44-2.86-5.19-4.25-4.61-3.72-9.01-7.61-13.4-11.6-3.14-2.76-6.45-5.26-9.82-7.73-0.534-0.465-1.07-0.931-1.62-1.41v-2l-1.67-0.719c-2.9-1.59-5.12-3.57-7.58-5.78l-2.7-2.41c-2.05-2.09-2.05-2.09-2.05-4.09-0.812-0.325-0.812-0.325-1.64-0.656-3.18-1.81-5.57-4.26-8.11-6.84-0.507-0.499-1.01-0.998-1.54-1.51-3.71-3.73-3.71-3.73-3.71-5.99l-1.88-0.75c-2.53-1.49-2.84-2.69-4.12-5.25-0.602-0.296-1.2-0.593-1.82-0.898-6.08-3.08-10.7-9.58-15-14.7-3.45-3.91-7.03-7.7-10.6-11.5-7.53-8.04-7.53-8.04-7.53-10.9-0.574-0.228-1.15-0.456-1.74-0.691-2.87-1.66-4.4-3.64-6.45-6.25-0.789-0.991-1.58-1.98-2.39-3-1.2-1.51-1.2-1.51-2.42-3.06-1.48-1.79-2.96-3.59-4.44-5.38-4.99-6.1-9.81-12.3-14.6-18.6-0.604-0.799-0.604-0.799-1.22-1.61-6.78-9.02-6.78-9.02-6.78-11.4-0.99-0.33-1.98-0.66-3-1-1.58-2.15-1.58-2.15-3.25-4.94-2.3-3.75-4.64-7.41-7.19-11-3.29-4.65-6.45-9.38-9.6-14.1-1.76-2.62-3.56-5.18-5.4-7.74-3.01-4.27-5.78-8.66-8.5-13.1-0.402-0.651-0.804-1.3-1.22-1.97-2.84-4.73-2.84-4.73-2.84-8.09h-2c-0.294-0.55-0.588-1.1-0.891-1.67-3.04-5.63-6.17-11.2-9.37-16.8-9.25-16.1-17.7-32.3-25.6-49.1-1.05-2.23-2.1-4.46-3.16-6.69-3.55-7.5-6.85-15.1-9.99-22.8-0.811-1.94-1.62-3.88-2.44-5.81-11.6-27.9-21.2-56.2-29.6-85.2-0.202-0.697-0.405-1.39-0.613-2.11-3.06-10.6-5.73-21.2-8.24-31.9-1.14-4.83-2.32-9.63-3.69-14.4-1.66-5.98-2.64-12-3.58-18.2-0.332-2.14-0.668-4.28-1.01-6.41-0.143-0.93-0.286-1.86-0.434-2.82-0.222-2.12-0.222-2.12-1.43-3.14-0.335-1.81-0.613-3.63-0.867-5.45-0.243-1.72-0.243-1.72-0.491-3.48-0.171-1.24-0.341-2.48-0.517-3.76-0.177-1.27-0.354-2.54-0.537-3.85-0.361-2.59-0.721-5.19-1.08-7.78-0.448-3.23-0.906-6.47-1.37-9.7-1.44-10.1-2.63-20.2-3.49-30.4-0.0714-0.824-0.143-1.65-0.216-2.5-0.0595-0.724-0.119-1.45-0.18-2.19-0.215-2.14-0.215-2.14-1.25-4.92-0.146-1.51-0.244-3.02-0.312-4.53-0.0413-0.911-0.0826-1.82-0.125-2.76-0.0387-0.985-0.0774-1.97-0.117-2.98-0.0632-1.54-0.0632-1.54-0.128-3.11-0.41-10.7-0.464-21.5-0.451-32.2-6.77e-4 -2.08-0.00165-4.15-0.0029-6.23-0.00146-4.31 6.14e-4 -8.61 0.00534-12.9 0.00571-5.47 0.00239-10.9-0.00357-16.4-0.00364-4.27-0.00245-8.54 1.28e-4 -12.8 6.58e-4 -2.01-1.18e-4 -4.03-0.00248-6.04-0.0089-9.71 0.0577-19.4 0.52-29.1 0.0303-0.741 0.0607-1.48 0.0919-2.24 0.207-3.72 0.733-6.38 2.52-9.63l-1-2c0.193-2.33 0.467-4.66 0.777-6.98 0.0902-0.693 0.18-1.39 0.273-2.1 0.29-2.22 0.588-4.44 0.887-6.66 0.295-2.21 0.588-4.41 0.876-6.62 0.263-2.01 0.533-4.03 0.803-6.04 0.345-3.23 0.456-6.34 0.383-9.59h2c0.314-2.77 0.626-5.54 0.938-8.31 0.0928-0.82 0.186-1.64 0.281-2.48 0.597-5.34 1.1-10.7 1.44-16 0.344-2.16 0.344-2.16 1.29-3.92 1.61-3.41 1.95-7.04 2.5-10.7 0.986-6.3 2.18-12.4 3.82-18.6 0.822-3.2 1.51-6.42 2.18-9.66 2.33-11 5.04-21.9 8.44-32.6 1.41-4.57 2.7-9.17 4-13.8 2.01-7.09 4.1-14.2 6.31-21.2 0.238-0.757 0.475-1.51 0.72-2.3 1.34-4.22 2.81-8.38 4.38-12.5 1.03-2.73 1.99-5.49 2.96-8.24 4.17-11.7 8.54-23.3 13.8-34.6 0.605-1.37 1.21-2.75 1.81-4.12 1.52-3.44 3.11-6.84 4.71-10.2 2.44-5.19 4.82-10.4 6.98-15.7 2.54-6.21 5.53-12.2 8.58-18.1 0.926-1.82 1.84-3.65 2.74-5.49 3.23-6.53 6.57-13 10.2-19.3 0.835-1.5 1.67-3 2.5-4.5 4.17-7.5 8.33-15 12.5-22.5h2l0.75-2.62c1.33-3.59 3.06-6.25 5.25-9.38 2.31-3.66 4.2-7.42 6.04-11.3 0.965-1.67 0.965-1.67 2.96-2.67 1.39-2.32 2.71-4.63 4-7 3.73-6.86 3.73-6.86 6-8 0.992-1.69 1.98-3.38 2.93-5.09 1.86-3.31 3.77-6.64 6.5-9.3 1.87-1.91 3.27-3.96 4.77-6.18 3.16-4.59 6.56-8.92 10.1-13.2 1.54-2.02 2.61-3.94 3.7-6.23l3-3 1.5-2.5c1.36-2.27 2.57-3.72 4.5-5.5 2.87-2.66 2.87-2.66 4.94-5.94 1.49-2.9 3.76-4.76 6.06-7.06 1.04-1.34 2.06-2.69 3.06-4.06 2.13-2.91 4.34-5.42 6.94-7.94 0.987-1.14 1.97-2.29 2.94-3.44 2.55-3.01 5.27-5.77 8.06-8.56 4.16-4.52 8.26-9.09 12.2-13.8 1.84-2.18 3.72-4.02 5.94-5.81 2.88-2.21 2.88-2.21 4.75-4.75 2.46-3.04 5.22-5.4 8.18-7.94 3.75-3.25 7.05-6.79 10.3-10.6 4.74-5.45 10.1-9.97 15.9-14.2 3.25-2.39 5.99-4.98 8.81-7.88 1.7-1.6 3.41-3.18 5.12-4.75 0.848-0.779 1.7-1.56 2.57-2.36 2.3-1.89 2.3-1.89 5.3-2.89 1.48-1.53 1.48-1.53 2.88-3.38 2.45-2.98 4.71-4.78 8.12-6.62 0.44-0.449 0.879-0.897 1.33-1.36 2.78-2.73 6.08-4.74 9.29-6.92 2.3-1.57 2.3-1.57 3.81-3.16 2.75-2.73 5.94-4.9 9.07-7.18 0.677-0.503 1.35-1.01 2.05-1.52 0.654-0.48 1.31-0.959 1.98-1.45 0.594-0.437 1.19-0.873 1.8-1.32 1.67-1.08 1.67-1.08 4.67-2.08l2-3c1.64-1.05 3.31-2.04 5-3 4.02-2.52 4.02-2.52 7.56-5.62 1.44-1.38 1.44-1.38 4-2.38 2.75-0.863 2.75-0.863 4.44-4 1.99-1.02 3.99-2.01 6-3 1.26-0.815 2.51-1.65 3.75-2.5 6.82-4.62 13.9-8.83 20.9-13.1 2.21-1.34 4.42-2.69 6.63-4.04 1.33-0.808 2.66-1.61 3.99-2.42 0.603-0.37 1.21-0.739 1.83-1.12 2.49-1.5 4.88-2.82 7.59-3.88 2.29-0.778 2.29-0.778 3.69-2.38 1.67-1.64 3.09-2.46 5.21-3.45 2.96-1.43 5.89-2.89 8.79-4.45 8.67-4.62 17.4-9.06 26.3-13.1 2.88-1.33 5.72-2.71 8.54-4.14 8.04-4.06 16.3-7.63 24.6-11.1 3.34-1.39 6.65-2.82 9.97-4.25 9.28-3.99 18.6-7.81 28.1-11.3 1.64-0.613 3.27-1.24 4.9-1.88 12.7-4.97 25.5-9.09 38.7-12.7 4.89-1.37 9.71-2.85 14.5-4.48 7.02-2.34 14.3-4.02 21.5-5.79 2.63-0.654 5.26-1.32 7.88-2 16.4-4.22 33-8.22 49.9-10.4 2.95-0.443 2.95-0.443 6.48-1.41 4.82-1.24 9.68-1.89 14.6-2.54 5.26-0.707 10.5-1.44 15.7-2.46 7.25-1.35 14.6-2.07 21.9-2.84 2.44-0.256 4.88-0.519 7.32-0.783 1.59-0.17 3.19-0.34 4.78-0.51 0.708-0.0761 1.42-0.152 2.14-0.23 2.28-0.238 4.55-0.456 6.83-0.672 0.859-0.0904 1.72-0.181 2.6-0.274 11.5-1.07 23-0.871 34.5-0.859zm-24.1 1.13v1h6v-1h-6zm-13 1 4 1zm-12 1 4 1zm37 184v1h7v-1h-7zm72 0 4 1zm-822 470 1 2zm-5 30 1 3zm184 32 1 3zm-189 11v10h1v-10h-1zm1406 4 1 2zm-1407 20 1 2zm1407 100 1 2zm0 3v5h1v-5h-1zm-1406 4v6h1v-6h-1zm1406 3 1 2zm-1396 75 1 2zm5 25 1 2zm1227 40v6h1v-6h-1zm-8 130 1 4zm0 6v7h1v-7h-1zm-8 133v8h1v-8h-1z" fill="#003B87"/>
<path transform="translate(811,1022)" d="m0 0c0.777 0.00725 1.55 0.0145 2.35 0.022 26.8 0.331 54.4 6.18 79.6 15 1.18 0.402 2.36 0.804 3.57 1.22 12.2 4.4 23.8 10.1 35.4 15.8 1.21 0.588 2.43 1.18 3.64 1.76 27.3 13.3 52.2 31.9 74.4 52.5 2.7 2.51 5.43 4.99 8.17 7.45 1.21 1.09 1.21 1.09 2.44 2.2 2.14 1.9 4.31 3.76 6.5 5.61 3.23 2.82 6.04 5.84 8.8 9.11 1.6 1.85 3.22 3.65 4.89 5.43 0.755 0.81 0.755 0.81 1.53 1.64 1.01 1.08 2.02 2.15 3.04 3.22 3.56 3.82 3.56 3.82 3.56 6.04h2c1.49 1.59 1.49 1.59 3.31 3.94 0.706 0.905 1.41 1.81 2.14 2.74 0.85 1.11 1.7 2.21 2.55 3.32 0.759 0.989 0.759 0.989 1.53 2 2.82 3.67 5.62 7.35 8.43 11 2.22 2.91 4.46 5.79 6.73 8.66 10.6 13.6 19.9 28.2 28.8 42.9 0.529 0.866 1.06 1.73 1.6 2.62 0.738 1.23 0.738 1.23 1.49 2.48 0.44 0.728 0.88 1.46 1.33 2.21 1.05 2.03 1.62 3.84 2.07 6.07h2c0.971 1.94 1.94 3.88 2.91 5.83 0.932 1.86 1.88 3.7 2.84 5.55 1.25 2.62 1.25 2.62 1.25 4.62h2c1.75 3.64 3.5 7.29 5.25 10.9 0.491 1.02 0.982 2.04 1.49 3.1 2.85 5.95 5.62 11.9 8.26 18 2.8 6.36 5.69 12.7 8.63 19 0.807 1.78 1.59 3.57 2.31 5.39 1.05 2.61 2.21 5.15 3.4 7.69 2.68 5.86 4.99 11.8 7.22 17.9 0.373 0.995 0.746 1.99 1.13 3.01 2.26 6.06 4.38 12.2 6.4 18.3 0.907 2.75 1.84 5.5 2.78 8.24 4.16 12.5 8.02 25.1 10.8 38 0.809 3.66 1.85 7.01 3.29 10.5 3.08 10.5 5.09 21.4 7.38 32.1 0.571 2.67 1.15 5.34 1.72 8 6.44 29.9 6.44 29.9 5.89 39.9-2.29 1.34-4.58 2.67-6.88 4-0.651 0.382-1.3 0.763-1.97 1.16-4.93 2.84-4.93 2.84-7.15 2.84v2c-2.91 1.26-4.8 2-8 2l-1 3c-1.69 0.99-1.69 0.99-3.9 1.87-3.49 1.45-6.92 2.96-10.3 4.6-0.887 0.425-1.77 0.849-2.69 1.29-1.82 0.872-3.63 1.74-5.45 2.62-3.8 1.82-7.59 3.63-11.5 5.27-2.83 1.21-5.56 2.51-8.3 3.91-2.39 1.22-4.73 2.38-7.23 3.37-2.72 1.09-5.33 2.35-7.97 3.63-6.18 2.99-11.8 5.36-18.7 6.44v2c-0.926 0.255-0.926 0.255-1.87 0.516-4.26 1.22-8.36 2.5-12.4 4.36-10.5 4.84-21.7 8.11-32.7 11.5-3.44 1.06-6.87 2.12-10.3 3.19-1 0.311-1 0.311-2.02 0.628-4.01 1.25-8 2.57-12 3.93-5.85 1.96-11.8 3.44-17.8 4.88-2.67 0.661-5.33 1.33-8 2-1.38 0.345-2.77 0.69-4.15 1.04-2.24 0.563-4.49 1.13-6.73 1.71-15 3.85-30.1 7.05-45.3 9.58-2.76 0.493-5.44 1.05-8.17 1.7-5.49 1.25-11 1.7-16.6 2.19-0.791 0.0748-1.58 0.15-2.4 0.227-0.697 0.0606-1.39 0.121-2.11 0.184-2.75 0.371-2.75 0.371-6.31 1.36-3.98 1.02-7.89 1.51-12 1.87-0.707 0.0638-1.41 0.128-2.14 0.193-1.48 0.132-2.96 0.262-4.44 0.388-2.25 0.193-4.51 0.395-6.76 0.599-11 0.975-11 0.975-15.3 0.943-2.52-0.277-2.52-0.277-3.59 1.03-2.69 0.233-5.37 0.405-8.07 0.535-0.826 0.043-1.65 0.086-2.5 0.13-1.76 0.0905-3.53 0.179-5.29 0.265-2.64 0.129-5.28 0.268-7.92 0.408-9.4 0.481-18.7 0.747-28.1 0.597-3.12-0.0863-3.12-0.0863-6.07 1.06-2.51 0.0962-4.99 0.139-7.5 0.125-0.677 0.00387-1.35 0.00773-2.05 0.0117-3.09-0.00609-5.5-0.152-8.45-1.14-2.32-0.0484-4.63-0.0405-6.95-0.00391-8.8 0.0774-17.5-0.315-26.3-0.796-2.58-0.14-5.15-0.271-7.73-0.402-1.65-0.0874-3.3-0.175-4.95-0.264-0.766-0.0386-1.53-0.0772-2.32-0.117-3.12-0.176-5.75-0.426-8.72-1.42-1.79-0.193-3.59-0.342-5.38-0.465-1.08-0.0768-2.16-0.154-3.27-0.233-1.15-0.0792-2.29-0.158-3.48-0.24-7.97-0.582-15.9-1.19-23.9-2.12-0.692-0.0792-1.38-0.158-2.1-0.24-4.64-0.568-4.64-0.568-6.9-1.7-1.68-0.265-3.36-0.486-5.05-0.684-1.01-0.123-2.02-0.246-3.06-0.373-2.12-0.252-4.25-0.503-6.38-0.75-1.52-0.187-1.52-0.187-3.07-0.377-0.925-0.109-1.85-0.218-2.8-0.33-2.76-0.507-5.05-1.43-7.65-2.49-2.3-0.483-2.3-0.483-4.66-0.746-0.87-0.113-1.74-0.227-2.64-0.344-1.37-0.172-1.37-0.172-2.77-0.348-6.84-0.916-13.5-2-20.1-3.82-3.14-0.838-6.3-1.52-9.48-2.18-22.7-4.81-22.7-4.81-31-7.81-2.57-0.843-5.14-1.47-7.77-2.1-6.5-1.61-12.9-3.58-19.2-5.66-1.06-0.343-2.13-0.686-3.22-1.04-4.69-1.52-9.38-3.05-14.1-4.62-2.98-0.996-5.96-1.92-8.98-2.78-5.16-1.53-10.1-3.5-15.1-5.56-5.29-2.15-10.5-4.28-16-6v-2l-2.34-0.516c-5.64-1.31-10.8-2.69-15.8-5.52-1.86-1.03-1.86-1.03-4.11-1.87-3.28-1.33-6.37-2.92-9.52-4.53-5.54-2.82-5.54-2.82-11.3-5.12-5.54-1.94-10.7-4.78-15.9-7.44-1.31-0.654-2.63-1.31-3.94-1.96-6.91-3.42-13.8-6.92-20.5-10.7-4.13-2.24-8.33-4.32-12.6-6.39v-2l-2.44-0.938c-2.56-1.06-2.56-1.06-3.56-2.06-0.492-7.55 0.986-14.8 2.31-22.2 0.32-1.86 0.32-1.86 0.646-3.75 1.42-8.09 3.14-16.1 5.04-24.1 0.479-2.1 0.956-4.19 1.43-6.29 2.79-12.3 5.71-24.5 9-36.6 0.567-2.11 1.12-4.22 1.66-6.34 0.175-0.671 0.349-1.34 0.529-2.03 0.463-1.78 0.924-3.57 1.39-5.35 0.919-3.14 2.01-6.14 3.18-9.19 1.56-4.22 2.85-8.53 4.19-12.8 2.69-8.53 5.52-17 8.62-25.4 0.251-0.692 0.503-1.38 0.762-2.1 3.65-9.95 7.63-19.8 12.1-29.4 1.09-2.42 2.07-4.86 3.02-7.34 1.9-4.84 4.2-9.45 6.55-14.1 2-3.94 3.86-7.92 5.61-12 1.44-3.22 3.06-6.35 4.65-9.49 2.22-4.49 4.26-9.07 6.3-13.6h2c0.29-0.957 0.29-0.957 0.586-1.93 0.391-1.24 0.391-1.24 0.789-2.5 0.255-0.824 0.51-1.65 0.773-2.5 0.852-2.07 0.852-2.07 2.85-3.07 0.931-1.83 1.86-3.66 2.75-5.51 2.5-4.97 5.4-9.72 8.25-14.5 0.352-0.597 0.704-1.19 1.07-1.81 1.07-1.82 2.16-3.63 3.25-5.44 0.656-1.1 1.31-2.2 1.99-3.33 0.841-1.2 0.841-1.2 1.7-2.42h2c0.248-0.874 0.495-1.75 0.75-2.65 1.32-3.55 2.95-5.98 5.25-8.98 2.82-3.66 2.82-3.66 5.12-7.65 0.875-1.73 0.875-1.73 2.88-2.73 1-1.66 2-3.33 3-5 2.24-3.01 4.62-5.91 6.97-8.83 2.62-3.28 4.91-6.54 7.03-10.2 1.31-1.36 2.65-2.69 4-4 1.82-2.12 3.62-4.25 5.41-6.39 0.523-0.531 1.05-1.06 1.59-1.61h2l0.688-2.19c1.58-3.38 3.62-5.25 6.31-7.81l2-2.5c2.17-2.71 4.52-5.08 7-7.5l2.25-2.31c3.06-2.99 6.25-5.81 9.47-8.62 1.57-1.42 3.11-2.9 4.6-4.41 3.25-3.21 6.66-6.18 10.1-9.16 0.643-0.556 1.29-1.11 1.95-1.68 10.5-9.07 10.5-9.07 15.7-12.9 2.28-1.69 4.49-3.39 6.69-5.19 2.04-1.59 3.96-2.6 6.25-3.75l1.44-1.44c1.99-1.99 4.13-3.14 6.56-4.56 1.42-0.953 2.84-1.91 4.25-2.88 3.68-2.47 7.43-4.68 11.3-6.79 2.68-1.48 5.29-3.07 7.92-4.65 6.91-4.05 14.1-7.37 21.4-10.7 2.03-0.937 4.04-1.9 6.05-2.87 8.18-3.93 16.5-7.24 25.1-10.1 1.03-0.356 1.03-0.356 2.08-0.719 5.46-1.87 10.9-3.4 16.5-4.78 0.87-0.215 1.74-0.43 2.64-0.652 11.1-2.71 22.3-4.89 33.6-6.42 1.99-0.274 3.98-0.587 5.95-0.949 4.09-0.621 8.16-0.847 12.3-1.04 1.31-0.0626 1.31-0.0626 2.65-0.126 9.41-0.412 18.8-0.47 28.2-0.311zm-77 573v1h5v-1h-5z" fill="#0097C5"/>
<path transform="translate(806,585)" d="m0 0c0.912 0.0411 1.82 0.0822 2.76 0.125 28 1.42 54.9 7.75 79.3 21.9 1.22 0.706 1.22 0.706 2.47 1.43 7.71 4.55 14.9 9.75 21.9 15.3 1.5 1.19 3.03 2.34 4.55 3.49 0.678 0.587 1.36 1.17 2.05 1.78v2l4 2v2l1.88 0.75c2.53 1.49 2.84 2.69 4.12 5.25l1.89 0.938c2.24 1.13 3.29 2.14 4.86 4.06 0.512 0.623 1.02 1.25 1.55 1.89 0.561 0.697 1.12 1.39 1.7 2.11 0.633 0.77 1.27 1.54 1.92 2.33 16.1 19.8 16.1 19.8 16.1 25.7h2c3.39 6.29 5.94 12.5 8.1 19.3 0.867 2.78 0.867 2.78 2.4 5.67 3.78 7.55 5.78 15.7 7.62 23.9 0.158 0.702 0.317 1.4 0.48 2.13 0.499 2.31 0.956 4.62 1.39 6.93 0.181 0.955 0.362 1.91 0.548 2.89 1.51 8.74 1.85 17.4 1.83 26.2-0.00121 0.737-0.00242 1.47-0.00366 2.23-0.148 33.5-8.37 64.7-25.4 93.6-0.772 1.35-1.54 2.71-2.31 4.06-0.557 0.969-1.11 1.94-1.69 2.94h-2c-0.218 0.675-0.436 1.35-0.66 2.05-1.75 3.86-4.15 6.9-6.78 10.2-0.49 0.637-0.981 1.27-1.49 1.93-3.7 4.7-3.7 4.7-7.08 5.82-0.682 1.33-1.35 2.66-2 4-1.39 1.53-2.83 3-4.31 4.44-0.759 0.741-1.52 1.48-2.3 2.25-0.788 0.764-1.58 1.53-2.39 2.32-1.2 1.23-1.2 1.23-2.43 2.49-19.5 19-46.7 32.2-72.6 39.5-1.37 0.416-1.37 0.416-2.77 0.84-15.4 4.53-31.6 5.21-47.6 5.29-0.732 0.00467-1.46 0.00935-2.22 0.0142-5.16-0.0159-5.16-0.0159-7.41-1.14-1.34-0.041-2.69-0.0295-4.03 0.0117-4.94 0.0503-9.66-0.46-14.5-1.2-1.3-0.195-1.3-0.195-2.62-0.395-7.01-1.13-13.6-2.94-20.3-5.23-2.9-0.986-5.77-1.83-8.73-2.62-5.94-1.77-11.3-4.7-16.8-7.56-2.12-1.07-4.25-2.13-6.38-3.19l-11.6-5.81v-2c-1.07-0.373-1.07-0.373-2.16-0.754-3.16-1.38-5.59-3.11-8.34-5.18-3.41-2.57-6.84-4.87-10.5-7.06-2.31-2.06-2.31-2.06-4-4v-2c-0.812-0.325-0.812-0.325-1.64-0.656-3.18-1.81-5.57-4.26-8.11-6.84-0.796-0.805-0.796-0.805-1.61-1.63-4.58-4.69-8.71-9.63-12.6-14.9-0.643-0.838-1.29-1.68-1.95-2.54-20.1-26.7-20.1-26.7-20.1-38.5h-2c-0.254-0.834-0.508-1.67-0.77-2.53-0.344-1.13-0.688-2.25-1.04-3.41-0.366-1.2-0.732-2.4-1.11-3.63-0.826-2.63-1.71-5.22-2.64-7.81-1.92-5.67-2.99-11.6-4.04-17.4-0.284-1.56-0.596-3.11-0.925-4.66-1.7-8.7-1.74-17.2-1.68-26.1 0.0183-2.53 0.0205-5.05 0.0203-7.57 0.0247-12.3 0.653-23.8 3.69-35.8 0.338-1.38 0.338-1.38 0.684-2.78 0.598-2.43 1.2-4.85 1.82-7.28 0.334-1.33 0.667-2.67 1-4h2l0.312-2.94c1.85-12.4 8.41-24.4 14.6-35.2 0.99-1.75 1.87-3.56 2.75-5.37 1.31-2.5 1.31-2.5 3.31-3.5 1.01-1.76 2.01-3.51 2.98-5.29 1.11-1.88 2.44-3.21 4.02-4.71l1-3c4.32-4.77 4.32-4.77 8-6l0.688-2.12c2.41-5.28 7.53-8.46 12-12 2.37-1.85 2.37-1.85 4.5-4.12 4.72-4.62 9.86-9.01 15.6-12.4 2.37-1.18 2.37-1.18 3.25-3.38 1.89-0.978 3.78-1.95 5.7-2.87 2.26-1.11 4.43-2.32 6.61-3.57 5.1-2.85 10.3-5.25 15.7-7.56 1.12-0.498 2.25-0.995 3.4-1.51 9.01-3.83 17.9-6.16 27.5-8.05 2.01-0.428 3.99-0.941 5.98-1.48 4.65-1.18 9.32-1.66 14.1-2.09 0.927-0.0835 1.85-0.167 2.81-0.253 8.09-0.684 16.1-0.99 24.2-0.622z" fill="#0097C5"/>
<path transform="translate(793,629)" d="m0 0 1 2c0.617-0.0722 1.23-0.144 1.87-0.219 4.33-0.474 8.65-0.886 13-1.03 0.699-0.0258 1.4-0.0516 2.12-0.0781 2.94 0.48 4.03 1.05 6.01 3.33 0.643 3.05 0.697 6.08 0.75 9.19 0.0296 0.845 0.0593 1.69 0.0898 2.56 0.0706 2.08 0.118 4.17 0.16 6.25 4.5 1.31 4.5 1.31 9.04 2.49 11.8 3.06 22.5 8.48 33.2 14.2 2.75 1.55 2.75 1.55 5.85 0.824 3.73-1.98 5.35-4.25 7.94-7.56h2v-2c3.06-0.875 3.06-0.875 7-1 2.73 1.62 4.97 3.56 7 6v2l1.94 0.812c2.06 1.19 2.06 1.19 3.06 4.19 2 1.21 2 1.21 4 2v2c0.99 0.33 1.98 0.66 3 1 2.03 3.04 2.76 5.08 2.73 8.73-1.37 4.26-5.06 6.65-8.45 9.38-2.35 1.68-2.35 1.68-3.29 3.88h-2c0.557 0.969 1.11 1.94 1.69 2.94 9.59 16.8 9.59 16.8 12.6 25 0.504 1.38 1.03 2.75 1.58 4.12 1.73 4.34 2.53 8.31 3.18 13 1.77 2.21 1.77 2.21 4.07 2.16 0.824-0.0322 1.65-0.0645 2.5-0.0977 3.5-0.061 6.94-0.0444 10.4 0.25 0.722 0.058 1.44 0.116 2.19 0.176 1.81 0.512 1.81 0.512 3.81 3.51 0.388 4.59 0.329 9.19 0.316 13.8-0.00317 2.27 0.0203 4.54 0.0457 6.81 0.00227 1.44 0.00298 2.88 0.00195 4.31 0.00447 1.97 0.00447 1.97 0.00903 3.97-0.184 1.54-0.184 1.54-0.372 3.12-3.2 2.14-4 2.24-7.67 2.2-0.893-0.00645-1.79-0.0129-2.71-0.0195-1.39-0.0251-1.39-0.0251-2.81-0.0508-0.94-0.00902-1.88-0.018-2.85-0.0273-2.32-0.0236-4.64-0.0565-6.96-0.0977-0.0575 0.729-0.115 1.46-0.174 2.21-0.353 4.47-0.739 7.8-2.83 11.8-0.401 1.6-0.774 3.2-1.12 4.81-2.25 8.62-6.89 16.5-11.6 24-1.49 2.18-1.49 2.18-0.984 4.84 0.567 1.8 1.15 3.59 1.75 5.38l1.75 0.812c3.27 1.73 5.45 4 7.25 7.19 0.828 2.89 0.921 5.13 0 8-2.81 3.39-6.37 5.58-10 8l-1 3c-3.26 3.45-7.24 7.15-12 8-5.66-1.67-8.97-5.94-12.8-10.2-2.09-2.03-2.09-2.03-4.68-1.71-2.86 1.05-5.41 2.32-8.07 3.82-0.918 0.513-1.84 1.03-2.78 1.55-1.78 1.03-3.54 2.08-5.28 3.17-2.31 1.33-4.4 2.18-6.94 2.96-2.35 0.732-4.6 1.48-6.86 2.46-3.14 1.16-6.14 1.64-9.46 2.11-1.16 0.168-2.32 0.335-3.52 0.508-0.88 0.121-1.76 0.242-2.67 0.367-0.0198 0.626-0.0396 1.25-0.0601 1.9-0.0951 2.83-0.205 5.65-0.315 8.48-0.0464 1.48-0.0464 1.48-0.0938 2.98-0.0387 0.941-0.0773 1.88-0.117 2.85-0.0314 0.869-0.0628 1.74-0.0952 2.63-0.319 2.15-0.319 2.15-2.32 4.15-1.96 0.243-1.96 0.243-4.38 0.23-0.894-9.67e-4 -1.79-0.00193-2.71-0.00293-0.962-0.0132-1.92-0.0264-2.92-0.04-1.48-0.014-1.48-0.014-3-0.0283-3-0.0376-6-0.0952-9-0.159-0.839-0.014-1.68-0.028-2.54-0.0425-25.4-0.51-47.7-9.46-68.8-23.3-0.998-0.649-0.998-0.649-2.02-1.31-1.6-1.07-3.14-2.22-4.67-3.38v-2l-1.56-0.688c-6.19-3.33-11.4-7.47-15.4-13.3v-2h-2l-0.812-2.44c-0.392-0.846-0.784-1.69-1.19-2.56-0.99-0.33-1.98-0.66-3-1-1.46-1.97-2.73-3.91-4-6-0.443-0.703-0.887-1.41-1.34-2.13-3.05-4.92-5.83-9.97-8.47-15.1-0.584-1.14-1.17-2.28-1.77-3.45-1.36-3.17-2.02-5.89-2.42-9.3h-2c-0.626-2.65-1.25-5.29-1.88-7.94-0.174-0.735-0.348-1.47-0.527-2.23-0.357-1.51-0.711-3.03-1.06-4.55-0.346-1.47-0.708-2.95-1.09-4.41-1.63-6.53-1.97-13-2.2-19.7-0.0424-1.18-0.0848-2.36-0.128-3.58-0.261-9.62 0.285-19 1.6-28.5 0.192-1.45 0.358-2.89 0.502-4.34 0.565-5.54 0.565-5.54 2.78-7.75 0.759-2.09 0.759-2.09 1.38-4.5 4.05-14 10.6-30.6 21.2-41.1 1.7-1.61 1.7-1.61 3.29-4.82 3.43-6.14 8.98-10.3 14.2-14.9 1.97-1.64 1.97-1.64 2.89-3.77 1.64-0.923 3.28-1.84 4.94-2.74 2.22-1.35 4.08-2.9 6.06-4.57 9.42-7.48 21.8-11.7 33-15.7 0.942-0.36 1.88-0.719 2.86-1.09 11-3.85 22.6-4.69 34.1-5.91z" fill="#F6FAFB"/>
<path transform="translate(791,641)" d="m0 0c2.29-0.0808 4.58-0.139 6.88-0.188 1.91-0.0522 1.91-0.0522 3.87-0.105 1.08 0.0967 2.15 0.193 3.26 0.293 2.8 4.2 2.36 8.39 2.39 13.3 0.0376 2.38 0.0376 2.38 0.609 5.72 2.94 2.6 7.34 2.75 11.1 3.44 15.9 3.02 15.9 3.02 22.9 7.56 1.54 0.76 3.08 1.51 4.62 2.25 4.9 2.41 9.4 5.26 13.9 8.3 3.04 1.84 3.04 1.84 6.45 2.45 2.06-1.23 2.06-1.23 3.94-3.12 0.69-0.643 1.38-1.29 2.09-1.95 0.651-0.636 1.3-1.27 1.97-1.93 0.806-0.783 0.806-0.783 1.63-1.58 1.14-1.13 2.26-2.27 3.37-3.42 5.39 2.89 8.77 5.02 11 11h-2l-1 3c-1.47 1.24-2.94 2.48-4.44 3.68-3.41 2.89-5.9 5.84-6.56 10.3h2c1.52 2.05 2.9 4.09 4.25 6.25 0.401 0.638 0.802 1.28 1.22 1.93 6.62 10.7 10.6 20.7 13.5 32.8 0.366 1.18 0.732 2.36 1.11 3.57 0.861 3.31 1.06 6.03 0.891 9.43 8.25 1.6 8.25 1.6 16.6 2h3.38c2 2 2 2 2.2 5.26-0.0651 3.58-0.13 7.16-0.195 10.7l-21 1c-0.577 4.8-0.577 4.8-1.14 9.6-0.443 3.49-0.879 5.42-2.86 8.4-0.56 2.07-0.56 2.07-0.938 4.31-0.826 3.97-2.12 7.1-4.06 10.7-0.61 1.44-1.21 2.87-1.81 4.31-2.15 4.88-4.78 9.56-8.19 13.7h-2l-1 5h-3c1.22 1.59 2.45 3.17 3.69 4.75 1.03 1.32 1.03 1.32 2.07 2.67 2.22 2.56 4.6 4.47 7.24 6.58 1.31 2.75 1.31 2.75 2 5l-1.94 0.812c-2.39 1.07-2.39 1.07-3.06 4.19-1.62 1.39-3.29 2.73-5 4-4.69-3.39-9.03-6.78-13-11-1.03-1.24-1.03-1.24-3.25-1.31-3.64 0.414-4.89 2.01-7.75 4.31-2.72 1.77-5.51 3.42-8.31 5.06-1.08 0.651-1.08 0.651-2.19 1.31-10.6 6.26-22.2 9.21-34.3 11.2-2.24 0.333-2.24 0.333-4.21 1.43-0.0251 0.57-0.0501 1.14-0.0759 1.73-0.116 2.57-0.239 5.14-0.362 7.71-0.0393 0.898-0.0786 1.8-0.119 2.72-0.0419 0.854-0.0838 1.71-0.127 2.59-0.0367 0.791-0.0733 1.58-0.111 2.4-0.205 1.86-0.205 1.86-1.21 2.86-2.14 0.125-4.29 0.176-6.44 0.188-1.17 0.0142-2.35 0.0284-3.56 0.043-3-0.23-3-0.23-5-2.23-0.188-2.68-0.252-5.26-0.227-7.94-2.92e-4 -0.82-5.84e-4 -1.64-8.85e-4 -2.48 0.0014-2.72 0.017-5.43 0.0326-8.15 0.00373-1.88 0.00658-3.76 0.00858-5.64 0.00764-4.96 0.0273-9.91 0.0494-14.9 0.0204-5.05 0.0296-10.1 0.0397-15.2 0.0215-9.92 0.0556-19.8 0.0977-29.8 1.58-0.675 3.16-1.34 4.75-2l2.67-1.12c2.58-0.875 2.58-0.875 6.58-0.875l1-3c1.33-0.667 2.67-1.33 4-2 6.1-5.35 10.2-13.1 11.3-21.2 0.11-2.27 0.119-4.52 0.0845-6.79 0.0116-0.755 0.0232-1.51 0.0352-2.29-0.0514-9.97-4.39-18-10.9-25.4-4.57-4.34-10.1-6.62-15.8-9.11-2.7-1.2-2.7-1.2-3.7-2.2-0.0951-2.65-0.126-5.27-0.114-7.92-1.46e-4 -0.829-2.92e-4 -1.66-4.43e-4 -2.51 6.99e-4 -2.75 0.00849-5.51 0.0163-8.26 0.00186-1.9 0.00329-3.81 0.00429-5.71 0.00383-5.02 0.0137-10 0.0247-15.1 0.0102-5.12 0.0148-10.2 0.0198-15.4 0.0107-10.1 0.0278-20.1 0.0488-30.2z" fill="#0098C6"/>
<path transform="translate(779,664)" d="m0 0c1.85 1.85 1.14 4.92 1.16 7.4 0.00508 0.668 0.0102 1.34 0.0154 2.03 0.0107 1.46 0.0193 2.91 0.0261 4.37 0.0118 2.3 0.0312 4.61 0.0531 6.91 0.0617 6.55 0.116 13.1 0.149 19.6 0.0209 4 0.0562 8 0.101 12 0.0142 1.53 0.0229 3.05 0.0261 4.58 0.0049 2.14 0.028 4.27 0.0553 6.41 0.00809 1.22 0.0162 2.43 0.0245 3.69 0.15 2.95 0.15 2.95 1.75 4.86 2.37 1.61 4.49 1.66 7.33 1.93 7.57 1.15 11.4 3.78 16.3 9.57 4.96 6.89 6.57 13.2 5.99 21.6-0.96 4.99-2.23 8.54-6 12-0.681 0.722-1.36 1.44-2.06 2.19-1.94 1.81-1.94 1.81-3.94 1.81l-1 3c-3.02 0.949-3.02 0.949-6.81 1.69-1.24 0.251-2.49 0.503-3.77 0.762-3.42 0.551-3.42 0.551-7.42 0.551l-1 74c-21.4-3.9-40.8-14.2-56-30-1.28-2.27-1.28-2.27-2-4l2.06-2.06c2.33-2.88 2.33-2.88 1.69-6.75l-0.75-3.19c-0.603 0.156-1.21 0.312-1.83 0.473-1.2 0.292-1.2 0.292-2.42 0.59-0.789 0.197-1.58 0.394-2.39 0.598-2.57 0.37-3.98 0.351-6.36-0.66-10.9-11.9-15.5-34.4-15-50l9-1c-0.0419-4.11-0.0419-4.11-1-8-2.27-1.66-4.26-2.17-7-3-1.76-1.76-1.21-4.17-1.25-6.56 0.0334-4.71 0.556-8.23 2.46-12.5 0.892-2.19 1.34-4.31 1.79-6.62 0.768-3.67 1.92-6.15 4-9.31 0.737-1.54 1.46-3.08 2.19-4.62 2.92-5.96 6.79-11.1 10.8-16.4 2.43 0.468 4.77 0.927 7.12 1.69 2.2 0.587 2.2 0.587 4.88-1.69-0.275-3.82-0.275-3.82-2-7-0.375-2.25-0.375-2.25 0-5 9.67-12.3 28.4-20.7 43-25 2.94-0.982 4.94-1.16 8-1z" fill="#0098C6"/>
<path transform="translate(1057,301)" d="m0 0c5.21 1.08 9.56 3.84 14.2 6.38 0.971 0.532 1.94 1.06 2.94 1.61 6.37 3.53 12.6 7.21 18.7 11.1 0.725 0.461 1.45 0.921 2.2 1.4 1.68 1.1 3.31 2.28 4.93 3.48v2h2c-0.443 0.882-0.443 0.882-0.895 1.78-0.946 1.9-1.87 3.81-2.79 5.72-3.5 6.98-7.58 13.6-11.6 20.3-4.71 7.67-4.71 7.67-8.94 15.6-1.62 3.3-3.41 6.32-5.39 9.42-2.53 4-4.93 8.08-7.36 12.1-0.472 0.759-0.944 1.52-1.43 2.3-1.24 2.14-2.35 4.25-3.44 6.46-2.2 4.46-4.7 8.72-7.26 13-0.879 1.47-1.76 2.95-2.63 4.42-0.383 0.64-0.766 1.28-1.16 1.94-1.11 1.93-2.11 3.89-3.08 5.89h-2c-0.11 0.731-0.219 1.46-0.332 2.21-0.707 2.95-1.72 4.81-3.36 7.35-3.02 4.82-5.46 9.79-7.82 15-1.49 2.47-1.49 2.47-3.23 4.06-3.74 0.672-6.27-1.6-9.26-3.59-1.32-0.826-2.65-1.65-3.97-2.47-2.05-1.3-4.1-2.6-6.15-3.9-3.87-2.44-7.74-4.64-11.9-6.62-1.22-0.606-2.43-1.21-3.65-1.82-0.612-0.306-1.22-0.612-1.86-0.928-2.83-1.42-5.66-2.83-8.5-4.25 0.557-3.25 1.29-5.95 2.81-8.88 0.354-0.683 0.709-1.37 1.07-2.07 1.65-3.05 3.38-6.05 5.11-9.05 0.68-1.33 1.35-2.66 2-4h2c0.227-0.804 0.454-1.61 0.688-2.44 2.31-6.26 5.88-11.9 9.31-17.6 7.07-11.8 14.1-23.5 20.7-35.6 2.81-5.17 5.79-10.2 8.77-15.3 2.13-3.64 4.22-7.3 6.25-11 1.34-2.43 2.7-4.69 4.25-7 2.48-3.76 4.58-7.67 6.7-11.6 1.37-2.49 1.37-2.49 3.37-5.49z" fill="#0097C5"/>
<path transform="translate(1273,497)" d="m0 0c0.34 0.643 0.681 1.29 1.03 1.95 3.47 6.48 7.21 12.7 11.1 19 2 3.27 3.89 6.57 5.72 9.94 0.835 1.53 1.7 3.04 2.58 4.54 0.461 0.793 0.923 1.59 1.4 2.4 0.419 0.708 0.838 1.42 1.27 2.14 0.918 2.04 0.918 2.04 0.918 6.04-1.98 1.61-1.98 1.61-4.76 3.17-1.01 0.578-2.02 1.16-3.07 1.75-1.09 0.602-2.18 1.2-3.3 1.83-1.09 0.621-2.19 1.24-3.32 1.88-2.18 1.24-4.37 2.47-6.56 3.69-3.16 1.77-6.31 3.56-9.45 5.37-1.61 0.925-3.23 1.84-4.84 2.76-1.68 0.963-3.35 1.94-5.01 2.95-3.03 1.8-6.11 3.51-9.2 5.22-13.1 7.23-26 14.6-38.8 22.3-4.53 2.75-9.1 5.39-13.7 7.94-2.32 1.29-4.6 2.65-6.86 4.04-3.66 2.2-7.34 4.35-11.1 6.44-1.34 0.754-1.34 0.754-2.71 1.52-2.35 1.1-2.35 1.1-5.35 1.1v-2h-2c-0.584-1.11-0.584-1.11-1.18-2.25-6.35-12-12.8-24.1-20.9-35-0.961-1.76-0.961-1.76-0.961-5.76 0.58-0.315 1.16-0.629 1.76-0.953 3.46-1.89 6.85-3.78 10.1-5.98 3.64-2.4 7.43-4.43 11.3-6.49 2.65-1.46 5.22-2.99 7.79-4.57 14.8-9 14.8-9 19.1-9l1-3c1.79-1.11 1.79-1.11 4.19-2.19 5.23-2.47 10.2-5.28 15.2-8.22 4.44-2.59 4.44-2.59 6.65-2.59v-2c0.762-0.364 0.762-0.364 1.54-0.734 3.23-1.57 6.28-3.15 9.27-5.14 3.58-2.39 7.28-4.39 11.1-6.42 3.4-1.85 6.77-3.77 10.1-5.7 4.4-2.52 8.81-5.04 13.2-7.5 0.871-0.485 1.74-0.969 2.64-1.47 2.11-1.03 2.11-1.03 4.11-1.03z" fill="#0097C5"/>
<path transform="translate(327,497)" d="m0 0c3.88 1.11 6.9 2.49 10.2 4.81 2.24 1.48 4.57 2.73 6.93 4 6.74 3.63 13.3 7.5 19.9 11.4 2.21 1.31 4.43 2.61 6.64 3.92 0.732 0.432 1.46 0.863 2.22 1.31 4.38 2.57 8.77 5.11 13.2 7.53 2.32 1.29 4.58 2.67 6.86 4.04 2.08 1.19 4.16 2.38 6.25 3.56 10.9 6.24 21.8 12.6 32.6 19.2 1.64 0.947 3.33 1.82 5.02 2.67 3.39 1.71 6.64 3.57 9.9 5.52 1.13 0.669 2.26 1.34 3.42 2.03 4.25 3.06 4.25 3.06 4.83 6.04-1.27 2.66-1.27 2.66-3.25 5.5-2.13 3.11-4.17 6.07-5.75 9.5h-2c-0.0619 0.66-0.124 1.32-0.188 2-0.962 3.55-2.62 6.04-4.62 9.1-1.39 2.21-2.24 4.47-3.19 6.9-1.61 3.03-3.3 6.02-5 9-2.97-0.495-2.97-0.495-6-1v-2c-0.862-0.259-1.72-0.518-2.61-0.785-3.48-1.25-6.39-2.79-9.57-4.65-0.587-0.342-1.17-0.684-1.78-1.04-1.3-0.756-2.59-1.51-3.89-2.27-2.33-1.36-4.66-2.71-7-4.05-1.67-0.963-3.35-1.93-5.02-2.89-0.784-0.451-1.57-0.902-2.38-1.37-4.37-2.53-8.68-5.14-12.9-7.83-2.36-1.46-4.79-2.8-7.24-4.11-0.936-0.505-1.87-1.01-2.84-1.53-0.9-0.485-1.8-0.969-2.73-1.47-5.41-2.95-10.7-6.02-16-9.2-9.64-5.8-19.2-11.5-29.4-16.4-4.11-2.12-7.85-4.71-11.6-7.36-1.69-1.13-3.37-2.25-5.06-3.38l-3.94-2.62c0.99-2.31 1.98-4.62 3-7h2c0.162-1.08 0.162-1.08 0.328-2.17 0.731-3.08 1.86-5.33 3.42-8.08 0.536-0.951 1.07-1.9 1.62-2.88 0.804-1.42 0.804-1.42 1.62-2.87 0.474-0.884 0.949-1.77 1.44-2.68 0.433-0.807 0.866-1.61 1.31-2.45 0.387-0.724 0.773-1.45 1.17-2.2 1.08-1.68 1.08-1.68 3.08-2.68 0.885-1.45 1.71-2.93 2.5-4.44 1.37-2.61 2.41-4.47 4.5-6.56z" fill="#0097C5"/>
<path transform="translate(542,301)" d="m0 0 1 5h2c0.299 0.542 0.597 1.08 0.905 1.64 3.09 5.59 6.26 11.1 9.47 16.7 0.48 0.829 0.961 1.66 1.46 2.51 2.07 3.57 4.14 7.13 6.23 10.7 4.31 7.35 8.44 14.8 12.4 22.3 2.8 5.22 5.78 10.2 9.12 15.1 1.74 2.68 3.13 5.46 4.5 8.34 0.954 2.01 0.954 2.01 2.63 4.66 1.25 2.12 1.25 2.12 1.25 4.12h2l1.56 3.25c2.36 4.72 5.02 9.24 7.7 13.8 1.92 3.28 3.77 6.59 5.6 9.93 1.11 1.99 2.28 3.95 3.45 5.91 1.69 3.12 1.69 3.12 1.69 6.12-0.605 0.312-1.21 0.625-1.83 0.946-2.77 1.43-5.53 2.87-8.29 4.3-0.951 0.491-1.9 0.982-2.88 1.49-5.89 3.06-5.89 3.06-11.5 6.62-2.51 1.64-2.51 1.64-5.51 1.64v2c-2.05 1.47-2.05 1.47-4.75 3.06-1.32 0.791-1.32 0.791-2.67 1.6-2.25 1.17-4.11 1.87-6.58 2.34-4-4.62-6.92-9.75-10-15-0.705-1.18-1.41-2.37-2.12-3.55-7-11.8-13.7-23.7-20.3-35.7-5.04-9.02-10.2-17.9-15.7-26.7-2.22-3.66-4.26-7.38-6.26-11.2-2.42-4.38-5.03-8.64-7.62-12.9-2.17-3.61-4.31-7.24-6.44-10.9-0.554-0.923-1.11-1.85-1.68-2.8-0.518-0.889-1.04-1.78-1.57-2.7-0.47-0.795-0.94-1.59-1.42-2.41-0.893-2.22-0.893-2.22-0.704-4.42 1.33-2.96 3.93-3.51 6.81-4.8 2.18-1.29 4.35-2.6 6.5-3.94 1.08-0.669 2.17-1.34 3.28-2.03 2.15-1.36 4.28-2.75 6.39-4.17 2.2-1.45 4.27-2.68 6.64-3.8 3.87-1.87 7.59-3.96 11.3-6.11 1.88-0.953 1.88-0.953 3.88-0.953z" fill="#0097C5"/>
<path transform="translate(430,985)" d="m0 0c1.52 2.46 2.88 4.87 4.19 7.44 0.368 0.694 0.736 1.39 1.12 2.1 2.7 5.17 2.7 5.17 2.7 7.46h2c0.619 1.31 0.619 1.31 1.25 2.64 3.99 8.28 8.44 15.8 13.8 23.4-2.45 2.77-5.12 4.29-8.38 6-2.82 1.49-5.6 2.99-8.33 4.64-2.15 1.27-3.86 1.9-6.29 2.36v2c-0.559 0.268-1.12 0.536-1.7 0.812-6.04 2.95-11.9 6.17-17.7 9.6-4.44 2.59-4.44 2.59-6.65 2.59v2c-0.557 0.231-1.11 0.461-1.69 0.699-4.77 2.04-9.11 4.31-13.5 7.14-1.86 1.16-1.86 1.16-5.3 2.85-2.68 1.05-2.68 1.05-3.56 3.31-1.45 0.808-2.94 1.55-4.44 2.25-4.5 2.18-8.74 4.61-13 7.21-2.65 1.59-5.35 3.07-8.07 4.54-3.56 1.92-7.05 3.9-10.5 6-1.67 1-3.33 2-5 3-0.955 0.576-1.91 1.15-2.89 1.75-1.44 0.837-1.44 0.837-2.92 1.69-0.873 0.514-1.75 1.03-2.64 1.56-3.07 1.21-4.47 1.17-7.54 0.00391-1.52-1.61-1.52-1.61-2.81-3.75-0.504-0.817-1.01-1.63-1.53-2.48-0.548-0.915-1.1-1.83-1.66-2.77-0.93-1.47-0.93-1.47-1.88-2.96-3.71-5.88-7.2-11.9-10.5-18-0.334-0.614-0.667-1.23-1.01-1.86-1.93-3.65-3.42-7.25-4.61-11.2 0.969-0.454 1.94-0.908 2.94-1.38 3.13-1.28 3.13-1.28 4.06-3.62 1.82-0.926 3.64-1.84 5.48-2.73 5.87-2.96 11.5-6.44 17.1-9.84 2.2-1.31 4.41-2.57 6.65-3.81 0.782-0.433 1.56-0.866 2.37-1.31 1.51-0.834 3.03-1.67 4.54-2.5 4.27-2.36 8.5-4.78 12.7-7.25 4.86-2.85 9.77-5.57 14.8-8.2 2.28-1.31 4.28-2.77 6.38-4.36 1.36-0.797 2.74-1.57 4.12-2.31 3.34-1.82 6.62-3.72 9.88-5.69 3.82-2.31 7.68-4.5 11.6-6.65 2.83-1.58 5.62-3.21 8.41-4.85 1.01-0.588 2.02-1.18 3.06-1.78 1.87-1.09 3.74-2.2 5.6-3.31 1.19-0.696 1.19-0.696 2.4-1.41 0.692-0.412 1.38-0.825 2.1-1.25 1.84-0.75 1.84-0.75 4.84 0.25z" fill="#0097C5"/>
<path transform="translate(810 238)" d="m0 0c2.09-0.0459 4.18-0.0769 6.28-0.103 1.21-0.0187 2.41-0.0374 3.66-0.0566 2.85 0.213 2.85 0.213 4.85 2.21 0.246 2.56 0.246 2.56 0.241 5.86 0.00275 1.25 0.0055 2.5 0.00833 3.78-0.00708 1.39-0.0143 2.78-0.0218 4.17-5.64e-4 1.46-2.48e-4 2.92 8.85e-4 4.38 5.75e-4 3.97-0.0112 7.93-0.0251 11.9-0.0125 4.14-0.0137 8.29-0.0161 12.4-0.00622 7.85-0.0226 15.7-0.0427 23.5-0.0223 8.93-0.0333 17.9-0.0434 26.8-0.0209 18.4-0.0561 36.8-0.101 55.1-7.08 0.0506-14.2 0.0857-21.3 0.11-2.41 0.0101-4.82 0.0237-7.23 0.041-3.46 0.0242-6.92 0.0356-10.4 0.0444-1.08 0.0103-2.17 0.0206-3.28 0.0313-1 1.51e-4 -2 3.02e-4 -3.03 4.58e-4 -1.33 0.00666-1.33 0.00666-2.68 0.0135-2.14-0.241-2.14-0.241-4.14-2.24-0.249-2.51-0.249-2.51-0.247-5.73-0.00419-1.22-0.00839-2.44-0.0127-3.7 0.00548-1.36 0.0112-2.72 0.017-4.08-0.00107-1.43-0.00301-2.85-0.00575-4.28-0.00486-3.88 0.00282-7.76 0.013-11.6 0.00877-4.05 0.00702-8.1 0.00664-12.2 9.37e-4 -6.81 0.00963-13.6 0.0233-20.4 0.0157-7.88 0.021-15.8 0.0203-23.6-6.1e-4 -7.57 0.00449-15.1 0.0128-22.7 0.00354-3.22 0.00536-6.45 0.00589-9.67 1e-3 -3.8 0.00709-7.59 0.0172-11.4 0.00293-1.4 0.00415-2.79 0.00357-4.19-4.89e-4 -1.9 0.00577-3.8 0.0124-5.7 0.00168-1.06 0.00335-2.13 0.00508-3.23 0.129-2.51 0.129-2.51 1.13-4.51 4.57-0.145 9.13-0.288 13.7-0.427 1.55-0.0477 3.09-0.0961 4.64-0.146 5.96-0.19 11.9-0.337 17.9-0.481z" fill="#0097C5"/>
<path transform="translate(239,774)" d="m0 0c19-0.0233 38-0.041 57-0.0518 8.82-0.00516 17.6-0.0122 26.5-0.0236 7.69-0.00995 15.4-0.0164 23.1-0.0186 4.07-0.00131 8.14-0.00439 12.2-0.0116 3.83-0.00677 7.66-0.00889 11.5-0.00738 1.41-2.76e-4 2.82-0.00228 4.23-0.0061 1.92-0.00495 3.83-0.00319 5.75-0.00105 1.07-9.22e-4 2.15-0.00184 3.26-0.00279 2.53 0.123 2.53 0.123 4.53 1.12v50c-19.3 0.0225-38.6 0.041-57.8 0.0518-8.95 0.00516-17.9 0.0122-26.9 0.0236-7.8 0.00995-15.6 0.0164-23.4 0.0186-4.13 0.00131-8.26 0.00439-12.4 0.0116-3.88 0.00676-7.77 0.00889-11.7 0.00738-1.43 2.76e-4 -2.86 0.00228-4.29 0.0061-1.94 0.00494-3.89 0.00319-5.83 0.00105-1.09 9.22e-4 -2.18 0.00184-3.3 0.00279-2.43-0.123-2.43-0.123-3.43-1.12-0.0983-1.49-0.128-2.99-0.129-4.49-0.00315-0.954-0.0063-1.91-0.00955-2.89 0.00202-1.04 0.00405-2.08 0.00613-3.15-9.57e-4 -1.06-0.00191-2.12-0.0029-3.21-6.82e-4 -2.25 0.00117-4.49 0.00534-6.74 0.00534-3.45 5.85e-5 -6.89-0.00635-10.3 6.61e-4 -2.18 0.00194-4.35 0.00391-6.53-0.00202-1.04-0.00405-2.07-0.00613-3.14 0.00315-0.958 0.0063-1.92 0.00955-2.9 7.96e-4 -0.845 0.00159-1.69 0.00241-2.56 0.127-2.06 0.127-2.06 1.13-4.06z" fill="#0098C6"/>
<path transform="translate(1212,774)" d="m0 0c19-0.0233 38-0.041 57-0.0518 8.82-0.00516 17.6-0.0122 26.5-0.0236 7.69-0.00995 15.4-0.0164 23.1-0.0186 4.07-0.00131 8.14-0.00439 12.2-0.0116 3.83-0.00677 7.66-0.00889 11.5-0.00738 1.41-2.76e-4 2.82-0.00228 4.23-0.0061 1.92-0.00495 3.83-0.00319 5.75-0.00105 1.07-9.22e-4 2.15-0.00184 3.26-0.00279 2.53 0.123 2.53 0.123 4.53 1.12v50c-19.1 0.0225-38.3 0.041-57.4 0.0518-8.89 0.00516-17.8 0.0122-26.7 0.0236-7.75 0.00995-15.5 0.0164-23.2 0.0186-4.1 0.00131-8.21 0.00439-12.3 0.0116-3.86 0.00676-7.72 0.00889-11.6 0.00738-1.42 2.76e-4 -2.84 0.00228-4.26 0.0061-1.93 0.00494-3.86 0.00319-5.79 0.00105-1.08 9.22e-4 -2.17 0.00184-3.28 0.00279-2.42-0.123-2.42-0.123-3.42-1.12-0.0933-1.57-0.117-3.14-0.114-4.7 7.55e-5 -1 1.51e-4 -2 2.29e-4 -3.03 0.00516-1.09 0.0103-2.18 0.0156-3.3 0.00141-1.11 0.00283-2.22 0.00429-3.36 0.00562-3.56 0.0182-7.11 0.0309-10.7 0.00501-2.4 0.00958-4.81 0.0137-7.21 0.0111-5.91 0.0278-11.8 0.0488-17.7z" fill="#0098C6"/>
<path transform="translate(780,643)" d="m0 0v10c-1.03 0.242-2.05 0.485-3.11 0.734-16.2 3.9-30.1 9.71-44.2 18.7-2.69 1.57-2.69 1.57-4.69 1.57l-0.781 1.8c-1.32 2.38-2.64 3.71-4.72 5.45-0.913 0.781-0.913 0.781-1.84 1.58-1.66 1.17-1.66 1.17-3.66 1.17l-0.312 1.94-0.688 2.06c-0.99 0.33-1.98 0.66-3 1l-2 4c-0.99 0.33-1.98 0.66-3 1-0.378 1.32-0.702 2.66-1 4-0.969 1.68-1.97 3.35-3 5-6.44 10.4-10.7 20.4-14.1 32.1-0.342 1.2-0.683 2.4-1.04 3.63-0.298 1.07-0.596 2.14-0.902 3.24-0.179 0.563-0.357 1.13-0.542 1.71-0.678 3.39-0.662 6.77-0.697 10.2-0.00807 0.778-0.0161 1.56-0.0245 2.36-0.0138 1.65-0.0246 3.3-0.0324 4.95-0.0114 1.66-0.0317 3.32-0.0615 4.97-0.352 19.6 4.15 36.8 13.9 53.9 1.24 2.36 2.02 4.25 2.49 6.85h2c1.03 1.65 2.02 3.32 3 5 2.85 3.47 5.93 6.72 9 10 0.731 0.82 1.46 1.64 2.21 2.48 9.46 10.2 22.1 18 34.8 23.5 0.611 0.269 1.22 0.539 1.85 0.816 5.19 2.11 10.6 3.44 16 4.83 4.91 1.26 4.91 1.26 7.1 2.36 1.28 3.85 1.07 6.95 1 11-27.6-3.38-51.8-17.2-71-37-0.779-0.766-1.56-1.53-2.36-2.32-7.34-7.45-13-15.3-17.6-24.7-0.441-0.846-0.882-1.69-1.34-2.56-13.5-26.2-16.4-56.6-10.7-85.4l2-2c0.566-2.15 1.06-4.32 1.5-6.5 1.28-6.28 1.28-6.28 3.5-8.5 0.694-1.56 1.33-3.15 1.94-4.75 2.38-6.11 4.88-11.2 9.06-16.2 0.642-1.1 0.642-1.1 1.3-2.22 2.1-3.43 4.47-6.56 6.95-9.72 0.487-0.622 0.973-1.24 1.47-1.88 3.42-4.28 6.96-7.78 11.3-11.2l2-3c4.44-3 4.44-3 7-3l1-3 2.38-0.25 2.62-0.75c0.313-0.636 0.626-1.27 0.949-1.93 1.79-3.54 5.58-4.53 9.05-6.07 0.888-0.415 1.78-0.83 2.69-1.26 7.88-3.66 15.6-6.64 24-8.99 1.26-0.356 2.52-0.712 3.82-1.08 3.33-0.641 5.28-0.629 8.49 0.328z" fill="#0098C6"/>
<path transform="translate(920,1405)" d="m0 0c6.69 6.85 8.34 13.4 8.34 22.7-0.0155 1.07-0.031 2.15-0.0469 3.26-0.00424 1.12-0.00849 2.24-0.0129 3.4-0.0167 3.56-0.0543 7.11-0.0926 10.7-0.0151 2.42-0.0287 4.84-0.041 7.26-0.033 5.91-0.0831 11.8-0.146 17.7h2l1 2c2.02 1.13 2.02 1.13 4 2-1.75 0.0814-3.5 0.139-5.25 0.188-0.975 0.0348-1.95 0.0696-2.95 0.105-3.25-0.34-4.53-0.976-6.8-3.29-1.52-3.54-1.1-7.46-1.06-11.2 0.00902-1.26 0.018-2.53 0.0273-3.83 0.0116-0.964 0.0232-1.93 0.0352-2.92-2.88 2.57-4.62 5.54-6.62 8.81-4.59 6.95-9.52 11.3-17.6 13.6-3.83 0.565-6.1 0.547-9.81-0.438-0.724-0.175-1.45-0.351-2.2-0.531-4.42-1.22-8.2-2.58-11-6.47-2.05-5.04-1.82-11.1-0.0781-16.2 3.04-5.68 6.81-9.54 12.9-11.6 1.46-0.427 2.91-0.845 4.38-1.25l3-1v-2c5.75-1.12 5.75-1.12 8 0l1-2c1.89-0.746 1.89-0.746 4.25-1.44 5.42-1.72 10.3-3.86 13.8-8.56 0.68-5.93-0.3-9.6-3-15l-1.19-2.44-0.812-1.56h-3v-2c-2.35-0.0545-4.71-0.0939-7.06-0.125-1.31-0.0232-2.62-0.0464-3.97-0.0703-5.36 0.264-9.49 1.21-14 4.2-0.99-0.33-1.98-0.66-3-1 0.938-1.94 0.938-1.94 3-4 2.97-0.713 5.96-0.811 9-1 1.48-0.204 2.96-0.412 4.44-0.625 7.71-0.823 14.5-0.62 20.6 4.62z" fill="#0399C6"/>
<path transform="translate(727,1406)" d="m0 0c4.25 4.5 8 9.72 8 16-0.963 0.348-1.93 0.696-2.92 1.05-3.6 1.3-7.2 2.6-10.8 3.91-1.55 0.562-3.11 1.12-4.66 1.68-2.24 0.81-4.48 1.62-6.72 2.44-0.686 0.247-1.37 0.494-2.08 0.748-4.35 1.58-8.58 3.33-12.8 5.17l-2.88 1-2.12 1-1 3v-2h-2c-0.128 0.563-0.255 1.13-0.387 1.71-0.613 2.29-0.613 2.29-1.51 4.55-1.76 4.66-2.59 7.83-0.668 12.6 3.09 5.72 7.39 9.2 13.5 11.6 3.49 0.936 7.02 1.13 10.6 1.34 2.45 0.211 2.45 0.211 5.45 1.21l1-2c3.14-1.86 6.53-2.9 10-4v-2l3.31-1.19c3.6-1.52 5.03-3.21 6.69-6.81l2 1c-6.12 9.1-12.9 14.1-23.8 16.3-1.99 0.379-3.99 0.735-5.99 1.09-3.08 0.441-3.08 0.441-5.2 1.61v-2c-0.594-0.0632-1.19-0.126-1.8-0.191-9.62-1.42-18-6.27-24.1-14-6.75-10.8-6.63-25.3-4.02-37.3 2.23-7.74 6.5-12.7 12.9-17.5l2-3c5.08-1.87 10-2.46 15.4-2.75 0.749-0.0402 1.5-0.0804 2.27-0.122 8.6-0.356 15.2 0.957 22.4 5.87z" fill="#059AC7"/>
<path transform="translate(793,749)" d="m0 0c3.84 2.72 6.5 5.51 8 10 0.171 2.12 0.266 4.25 0.312 6.38 0.0561 1.68 0.0561 1.68 0.113 3.4-0.526 3.98-1.55 5.45-4.43 8.23-4.7 3.09-7.97 3.18-13.5 2.75-5.13-0.287-5.13-0.287-9.63 1.73-1.51 1.86-1.51 1.86-2.73 3.83-1.59 2.36-3.45 2.98-6.14 3.69v3c-1.42 1.26-2.85 2.5-4.34 3.67-3.04 2.44-5.69 5.29-8.34 8.14-1.31 1.19-1.31 1.19-3.31 1.19l-1 3c-6.39 1.33-6.39 1.33-9-0.0625-1.51-2.92-0.795-4.81 0-7.94 1.65-2.24 1.65-2.24 3.79-4.31 0.777-0.766 1.55-1.53 2.36-2.32 1.23-1.17 1.23-1.17 2.48-2.37 0.795-0.781 1.59-1.56 2.41-2.37 3.56-3.47 7.15-6.84 11-10 2.92-2.54 4.08-3.91 5-7.61v-2c-0.877 0.00666-0.877 0.00666-1.77 0.0135-6.07 0.0441-12.1 0.0744-18.2 0.0964-2.27 0.0101-4.53 0.0237-6.8 0.041-3.25 0.0242-6.5 0.0356-9.75 0.0444-1.53 0.0155-1.53 0.0155-3.08 0.0313-0.941 1.51e-4 -1.88 3.02e-4 -2.85 4.58e-4 -1.25 0.00666-1.25 0.00666-2.52 0.0135-2.02-0.241-2.02-0.241-4.02-2.24-0.25-3-0.25-3 0-6 2.52-2.52 3.41-2.27 6.91-2.32 1.02-0.0199 2.04-0.0397 3.09-0.0602 1.11-0.0116 2.21-0.0231 3.35-0.035 1.13-0.0194 2.26-0.0387 3.42-0.0587 3.62-0.0599 7.23-0.106 10.9-0.152 2.45-0.0382 4.9-0.0772 7.34-0.117 6.01-0.0962 12-0.181 18-0.258 0.443-0.924 0.443-0.924 0.895-1.87 2.02-3.89 4.18-5.75 8.23-7.45 4.88-0.866 9.09-1.15 13.9 0.312z" fill="#F6FAFB"/>
<path transform="translate(982 1400)" d="m0 0c0.673-0.0116 1.35-0.0232 2.04-0.0352 4.95 0.0287 8.63 1.04 13 3.41 1.96 2.16 1.96 2.16 3.38 4.5 0.482 0.773 0.964 1.55 1.46 2.34 1.94 3.59 2.29 6.4 2.32 10.4 0.0103 1.07 0.0205 2.14 0.0311 3.25 0.0073 1.16 0.0146 2.31 0.0221 3.5 0.0281 2.44 0.0567 4.88 0.0859 7.31 0.0414 3.85 0.0782 7.7 0.104 11.6 0.0275 3.71 0.0734 7.42 0.122 11.1 0.00325 1.16 0.00651 2.31 0.00986 3.5 0.0166 1.07 0.0331 2.14 0.0502 3.25 0.0121 1.42 0.0121 1.42 0.0245 2.86 0.456 2.78 1.22 3.67 3.39 5.39l-1 3c-6.27-0.362-6.27-0.362-9.21-2.94-2.53-4.34-2.27-7.95-2.14-12.9 0.012-1.41 0.012-1.41 0.0243-2.86 0.0289-3 0.0852-6 0.144-9.01 0.0425-3.01 0.0793-6.03 0.111-9.04 0.0217-1.87 0.0504-3.75 0.0867-5.62 0.013-0.845 0.026-1.69 0.0394-2.56 0.0143-0.744 0.0286-1.49 0.0433-2.26 0.025-1.94 0.025-1.94-1.09-3.84 0.0316-1.52 0.0995-3.04 0.188-4.56 0.0632-5.44-1.23-9.85-4.19-14.4-4.08-2.72-7.21-2.51-12-2-2.38 0.624-4.65 1.38-6.96 2.25-2.04 0.754-2.04 0.754-4.23 1.2-0.897 0.275-0.897 0.275-1.81 0.555-1.25 2.41-1.25 2.41-2 5l-1 2h-2c-0.205 0.626-0.41 1.25-0.621 1.9-0.269 0.817-0.539 1.63-0.816 2.48-0.267 0.812-0.534 1.62-0.809 2.46-0.754 2.16-0.754 2.16-1.75 4.16-0.124 3-0.188 5.98-0.203 8.99-0.0057 0.895-0.0114 1.79-0.0173 2.71-0.00946 1.9-0.016 3.79-0.0198 5.69-0.00969 2.9-0.0407 5.79-0.0723 8.69-0.00653 1.84-0.0118 3.69-0.0156 5.53-0.0123 0.865-0.0247 1.73-0.0374 2.62 0.0179 4.84 0.431 7.72 3.37 11.8v2l4 1h-20l2-1c1.87-3.7 2.25-6.74 2.24-10.8 0.00308-1.15 0.00615-2.3 0.00932-3.49-0.00719-1.23-0.0144-2.47-0.0218-3.74-4.58e-4 -1.27-9.16e-4 -2.55-0.00139-3.86-0.00302-2.69-0.00981-5.38-0.0233-8.06-0.017-3.44-0.0208-6.89-0.0201-10.3-3.37e-4 -3.29-0.00917-6.58-0.0178-9.87-0.00111-1.24-0.00223-2.48-0.00337-3.75-0.00638-1.14-0.0128-2.29-0.0193-3.47-0.00572-1.51-0.00572-1.51-0.0116-3.06-0.0281-2.65-0.0281-2.65-1.13-5.53h-2v-3l10-3c2.1 2.1 1.38 6.58 1.52 9.43 0.157 0.847 0.315 1.69 0.477 2.57l3 2 0.375-2.38c0.625-2.62 0.625-2.62 2.62-4.62 0.557-0.804 1.11-1.61 1.69-2.44 4.76-5.28 10.5-6.06 17.3-5.94z" fill="#F1F8FA"/>
<path transform="translate(755,1372)" d="m0 0c2.1-0.135 4.21-0.232 6.31-0.312 1.17-0.058 2.34-0.116 3.55-0.176 3.14 0.488 3.14 0.488 4.85 2.5 1.59 3.7 3.11 7.41 4.54 11.2 0.618 1.62 1.24 3.23 1.86 4.85 0.314 0.824 0.627 1.65 0.951 2.5 1.19 3.12 2.41 6.24 3.63 9.35 2.81 7.18 5.55 14.4 8.25 21.6 2.26 6.06 4.57 12.1 7.18 18 0.891 2.48 0.891 2.48 0.891 6.48h2l2 9h2v2c0.99-0.33 1.98-0.66 3-1v-4l2-1c0.355-2 0.686-4 1-6 0.938-2.06 0.938-2.06 2-4 1.3-2.96 2-4.73 2-8l1.44-1.38c2.01-2.09 2.18-3.8 2.56-6.62h2l-1-4c0.99-0.33 1.98-0.66 3-1-0.371-0.804-0.371-0.804-0.75-1.62-0.386-3.66 1.62-5.53 3.75-8.38 1.27 3.8 0.512 4.96-0.922 8.65-0.444 1.16-0.887 2.31-1.34 3.51-0.494 1.26-0.989 2.52-1.48 3.78-0.499 1.29-0.996 2.58-1.49 3.87-1.31 3.38-2.62 6.76-3.95 10.1-0.806 2.06-1.61 4.11-2.41 6.17-3.11 7.97-6.25 15.9-9.4 23.9-3 0-3 0-5-1.88-2.21-3.45-3.15-6.53-4.22-10.4-1.73-5.97-4.3-11.6-6.84-17.3-3.37-7.51-5.99-15.3-8.75-23.1-1.1-3.06-2.22-6.1-3.38-9.13-1.54-4.15-2.97-8.34-4.43-12.5-1.62-4.3-3.47-8.48-5.38-12.7-0.116 1.16-0.232 2.32-0.351 3.52-0.431 4.31-0.866 8.62-1.3 12.9-0.188 1.86-0.375 3.73-0.562 5.59-0.268 2.68-0.539 5.36-0.812 8.04-0.0823 0.832-0.165 1.66-0.249 2.52-0.12 1.17-0.12 1.17-0.242 2.37-0.0688 0.684-0.138 1.37-0.209 2.07-0.283 2.04-0.767 3.97-1.27 5.96-0.0444 1.34-0.0432 2.69-0.00391 4.03 0.0625 5.55-0.424 11-0.934 16.5-0.087 0.989-0.174 1.98-0.264 3-0.389 4.34-0.813 8.65-1.42 13-0.388 3.59-0.0477 5.32 1.62 8.47-1 1-1 1-3.5 1.1-1.01-0.0116-2.02-0.0232-3.06-0.0352-1.52-0.0135-1.52-0.0135-3.07-0.0273-0.782-0.0116-1.56-0.0232-2.37-0.0352 0.632-0.688 0.632-0.688 1.28-1.39 0.548-0.614 1.1-1.23 1.66-1.86 0.545-0.603 1.09-1.21 1.65-1.83 1.47-2.01 1.99-3.49 2.41-5.92h2c-0.162-0.553-0.325-1.11-0.492-1.68-1.64-7.49-0.49-15.8-0.0703-23.4 0.0392-0.738 0.0783-1.48 0.119-2.24 0.187-3.1 0.456-5.74 1.44-8.7l-0.0625-3.56c-0.0734-4.94 0.79-9.67 2.06-14.4l1-1c0.0492-1.5 0.0361-3 0-4.5-0.0525-3.64 0.0285-7.21 0.324-10.8 0.0587-0.75 0.117-1.5 0.178-2.27 0.122-1.49 0.257-2.98 0.406-4.46 0.365-4.64-0.0279-7.25-2.91-10.9-1.58-1.75-1.58-1.75-3-3z" fill="#F1F8FA"/>
<path transform="translate(640 1372)" d="m0 0c4.99 0.36 9.96 0.265 15 0.125 1.84-0.0307 3.67 0.0394 5.51 0.125 2.53 2.53 2.75 4.41 3.56 7.88 0.249 1.05 0.498 2.1 0.754 3.18 0.338 1.46 0.338 1.46 0.684 2.95 0.33 1.33 0.662 2.67 1 4-2.73-2.58-4.97-4.95-7-8.12-2.59-3.73-4.63-5.44-9.16-6.27-6.27-0.734-12.5-0.691-18.8-0.602-0.864 7.19-1.15 14.3-1.13 21.5-0.00141 1.08-0.00282 2.16-0.00427 3.28-0.00212 3.48 0.00412 6.97 0.0121 10.5 0.00155 1.18 0.0031 2.37 0.0047 3.59 0.0217 14.1 0.0793 28.1 0.495 42.2 0.0462 1.77 0.0462 1.77 0.0933 3.58 0.0582 1.6 0.0582 1.6 0.118 3.23 0.0314 0.893 0.0628 1.79 0.0952 2.71 0.354 2.75 1.19 4.96 2.32 7.48-5.56 0.915-9.68 1.32-15-1 0.488-0.476 0.976-0.953 1.48-1.44 2.2-3.7 1.92-7.27 1.86-11.5 4.38e-4 -0.898 8.76e-4 -1.8 0.00133-2.72-0.00209-2.97-0.0254-5.93-0.0489-8.9-0.0056-2.06-0.00987-4.11-0.0129-6.17-0.0115-5.41-0.0409-10.8-0.0741-16.2-0.0307-5.52-0.0444-11-0.0595-16.6-0.0322-10.8-0.0834-21.7-0.146-32.5-3.52-0.146-7.04-0.234-10.6-0.312-0.991-0.0419-1.98-0.0838-3-0.127-6.85-0.114-10.4 0.681-15.4 5.44-1.1 2.39-1.54 4.38-2 7h-2v-2l-2-1 2-2c0.618-2.58 1.02-5.17 1.44-7.79 0.186-0.731 0.371-1.46 0.562-2.21 3.13-1.56 6.58-1.4 10-1l3 2 1-2v2h3v-2c21.7-1.3 21.7-1.3 32.5-0.25z" fill="#F1F8FA"/>
<path transform="translate(920,1405)" d="m0 0c6.69 6.85 8.34 13.4 8.34 22.7-0.0155 1.07-0.031 2.15-0.0469 3.26-0.00424 1.12-0.00849 2.24-0.0129 3.4-0.0167 3.56-0.0543 7.11-0.0926 10.7-0.0151 2.42-0.0287 4.84-0.041 7.26-0.033 5.91-0.0831 11.8-0.146 17.7h2l1 2c2.02 1.13 2.02 1.13 4 2-1.75 0.0814-3.5 0.139-5.25 0.188-0.975 0.0348-1.95 0.0696-2.95 0.105-3.25-0.34-4.53-0.976-6.8-3.29-1.52-3.54-1.1-7.46-1.06-11.2 0.00902-1.26 0.018-2.53 0.0273-3.83 0.0116-0.964 0.0232-1.93 0.0352-2.92-2.88 2.57-4.62 5.54-6.62 8.81-4.59 6.95-9.52 11.3-17.6 13.6-3.83 0.565-6.1 0.547-9.81-0.438-0.724-0.175-1.45-0.351-2.2-0.531-4.42-1.22-8.2-2.58-11-6.47-2.05-5.04-1.82-11.1-0.0781-16.2 3.04-5.68 6.81-9.54 12.9-11.6 1.46-0.427 2.91-0.845 4.38-1.25l3-1v-2c5.75-1.12 5.75-1.12 8 0l1-2 2 2c-1.09 0.496-2.17 0.993-3.29 1.5-10.8 4.92-10.8 4.92-18.7 13.5-1.19 3.56-1.1 6.44-1.06 10.2 0.00902 1.27 0.018 2.54 0.0273 3.86 0.0116 0.976 0.0232 1.95 0.0352 2.96h2l1.56 1.94c3.54 3 6.88 3.25 11.4 3.06 8.64-2.82 14.4-9.99 18.9-17.6 1.16-2.49 1.6-4.74 2.13-7.43l2-3c0.982-5.69 1.12-11.2 1-17l-4 3-2-1c3.75-4.88 3.75-4.88 6-6 0.312-5.92-0.291-9.58-3-15l-1.19-2.44-0.812-1.56h-3v-2c-2.35-0.0545-4.71-0.0939-7.06-0.125-1.31-0.0232-2.62-0.0464-3.97-0.0703-5.36 0.264-9.49 1.21-14 4.2-0.99-0.33-1.98-0.66-3-1 0.938-1.94 0.938-1.94 3-4 2.97-0.713 5.96-0.811 9-1 1.48-0.204 2.96-0.412 4.44-0.625 7.71-0.823 14.5-0.62 20.6 4.62z" fill="#E6F4F8"/>
<path transform="translate(848,1372)" d="m0 0c3 0.5 3 0.5 5 1-0.598 0.268-1.2 0.536-1.81 0.812-2.35 1.27-3.6 2.04-5.19 4.19-0.402 3.36-0.402 3.36-0.25 7.06 0.0155 1.25 0.0309 2.5 0.0469 3.79-0.00836 3.05-0.00836 3.05 1.2 5.15-0.018 1.16-0.0361 2.33-0.0547 3.52-0.0833 7.74 1.05 15.4 1.93 23.1 0.376 3.32 0.748 6.64 1.12 9.96 0.0905 0.814 0.181 1.63 0.274 2.47 0.518 4.73 0.958 9.46 1.3 14.2 0.0762 1.04 0.152 2.08 0.231 3.16 0.128 1.86 0.242 3.72 0.339 5.58 0.357 5.16 1.44 8.9 4.02 13.4 0.84 1.6 0.84 1.6 0.84 3.6-3.01 1-5.04 1.1-8.19 1.06-1.35-0.0135-1.35-0.0135-2.73-0.0273-0.687-0.0116-1.37-0.0232-2.08-0.0352l-2-4h3c-0.0729-0.768-0.146-1.54-0.221-2.33-0.693-7.31-1.38-14.6-2.07-21.9-0.354-3.76-0.709-7.51-1.07-11.3-0.345-3.64-0.689-7.27-1.03-10.9-0.13-1.37-0.26-2.75-0.391-4.12-1.16-12.2-1.16-12.2-1.46-17.6-0.0383-0.676-0.0766-1.35-0.116-2.05-0.101-1.87-0.191-3.74-0.28-5.6-0.35-3.1-1.05-5.41-2.36-8.23-0.254 0.82-0.508 1.64-0.77 2.48-0.344 1.08-0.688 2.16-1.04 3.27-0.336 1.07-0.673 2.13-1.02 3.23-1.09 2.81-2.24 4.74-4.17 7.02-0.25-6.62-0.25-6.62 2-10l-1-1c0.698-0.559 0.698-0.559 1.41-1.13 2.67-3.14 2.87-7 3.65-11 2.22-6.86 6.3-7.61 12.9-6.91z" fill="#F2F9FB"/>
<path transform="translate(698,1402)" d="m0 0-1.62 1.19-2.38 1.81-3 2.25c-7.49 6.4-10.3 17-11.5 26.5-0.239 3.09-0.426 6.17-0.527 9.27h5l0.75-2.44 1.25-2.56c2-0.688 2-0.688 4-1l2-2c1.99-0.398 3.99-0.738 6-1-2.69 2.25-4.65 3.88-8 5l-1 3v-2h-2c-0.128 0.563-0.255 1.13-0.387 1.71-0.613 2.29-0.613 2.29-1.51 4.55-1.76 4.66-2.59 7.83-0.668 12.6 3.09 5.72 7.39 9.2 13.5 11.6 3.49 0.936 7.02 1.13 10.6 1.34 2.45 0.211 2.45 0.211 5.45 1.21l1-2c3.14-1.86 6.53-2.9 10-4v-2l3.31-1.19c3.6-1.52 5.03-3.21 6.69-6.81l2 1c-6.12 9.1-12.9 14.1-23.8 16.3-1.99 0.379-3.99 0.735-5.99 1.09-3.08 0.441-3.08 0.441-5.2 1.61v-2c-0.594-0.0632-1.19-0.126-1.8-0.191-9.62-1.42-18-6.27-24.1-14-6.75-10.8-6.63-25.3-4.02-37.3 2.23-7.74 6.5-12.7 12.9-17.5l2-3c4.07-1.81 6.72-2.26 11-1z" fill="#F4F9FB"/>
<path transform="translate(956,1402)" d="m0 0c2.56 13.8 1.02 29 0.829 43-0.0423 3.35-0.0657 6.69-0.0864 10-0.0186 1.02-0.0372 2.05-0.0564 3.1-0.0187 5.18 0.0503 8.56 3.31 12.8v2l4 1h-20l2-1c1.87-3.7 2.25-6.74 2.24-10.8 0.00308-1.15 0.00615-2.3 0.00932-3.49-0.00719-1.23-0.0144-2.47-0.0218-3.74-4.58e-4 -1.27-9.16e-4 -2.55-0.00139-3.86-0.00302-2.69-0.00981-5.38-0.0233-8.06-0.017-3.44-0.0208-6.89-0.0201-10.3-3.37e-4 -3.29-0.00917-6.58-0.0178-9.87-0.00111-1.24-0.00223-2.48-0.00337-3.75-0.00638-1.14-0.0128-2.29-0.0193-3.47-0.00572-1.51-0.00572-1.51-0.0116-3.06-0.0281-2.65-0.0281-2.65-1.13-5.53h-2v-3c1.46-0.53 2.91-1.05 4.38-1.56 0.812-0.29 1.62-0.58 2.46-0.879 2.16-0.559 2.16-0.559 4.16 0.441z" fill="#F5FAFB"/>
<path transform="translate(900,1434)" d="m0 0 3 2c-1.09 0.496-2.17 0.993-3.29 1.5-10.8 4.92-10.8 4.92-18.7 13.5-1.19 3.56-1.1 6.44-1.06 10.2 0.00902 1.27 0.018 2.54 0.0273 3.86 0.0116 0.976 0.0232 1.95 0.0352 2.96h2c1.36 1.31 2.69 2.65 4 4l3 2c-4.86 1.6-8.52 0.152-13-2-3.63-2.89-4.73-4.27-5.44-8.81-0.335-8.38 1.47-12.5 6.62-18.9 3.67-2.94 7.33-4.01 11.8-5.25 0.99-0.33 1.98-0.66 3-1v-2c5.75-1.12 5.75-1.12 8 0v-2z" fill="#F1F8FA"/>
<path transform="translate(759,1416)" d="m0 0h1c0.302 16.3-0.35 32.4-2.62 48.5-0.385 3.62-0.0588 5.35 1.62 8.52-1 1-1 1-3.5 1.1-1.01-0.0116-2.02-0.0232-3.06-0.0352-1.01-0.00902-2.02-0.018-3.07-0.0273-0.782-0.0116-1.56-0.0232-2.37-0.0352 0.632-0.688 0.632-0.688 1.28-1.39 0.822-0.92 0.822-0.92 1.66-1.86 0.545-0.603 1.09-1.21 1.65-1.83 1.47-2.01 1.99-3.49 2.41-5.92h2c-0.162-0.553-0.325-1.11-0.492-1.68-1.64-7.49-0.49-15.8-0.0703-23.4 0.0392-0.738 0.0783-1.48 0.119-2.24 0.187-3.1 0.456-5.74 1.44-8.7 0.0286-2.03-0.0642-4.04-0.16-6.06 0.16-1.94 0.16-1.94 2.16-4.94z" fill="#BEE3F1"/>
<path transform="translate(727,1406)" d="m0 0c4.25 4.5 8 9.72 8 16-2.08 0.868-4.16 1.72-6.25 2.56-1.16 0.476-2.32 0.951-3.52 1.44-3.1 0.954-4.31 1.21-7.23-0.00391h2v-3l8-1c-2.36-6.13-5.04-11.6-10-16-0.99-0.33-1.98-0.66-3-1v-2l-17-1v-1c11-1.26 19.7-1.41 29 5z" fill="#EBF6F9"/>
<path transform="translate(629,1371)" d="m0 0c1.22 0.108 1.22 0.108 2.46 0.219 7.71 0.625 15.3 0.872 23 0.656 1.84-0.0309 3.68 0.0391 5.51 0.125 2.53 2.53 2.75 4.41 3.56 7.88 0.249 1.05 0.498 2.1 0.754 3.18 0.338 1.46 0.338 1.46 0.684 2.95 0.33 1.33 0.662 2.67 1 4-2.73-2.58-4.97-4.95-7-8.12-2.22-3.19-3.42-4.4-7-5.88-3.32-0.588-6.64-0.793-10-1-2.54-0.187-5.08-0.375-7.62-0.562-2.12-0.147-4.25-0.294-6.38-0.438l1-3z" fill="#E1F2F7"/>
<path transform="translate(880,1407)" d="m0 0 4 1 0.438 2.31c0.526 2.77 0.526 2.77 1.56 5.69 0.0387 1.67 0.045 3.33 0 5-2.75 0.75-2.75 0.75-6 1-2.44-1.56-2.44-1.56-4-4 0.0942-4.43 1.55-7.37 4-11z" fill="#F4FAFB"/>
<path transform="translate(824,1412)" d="m0 0c1.31 3.93 0.358 5.35-1.13 9.18-0.234 0.609-0.467 1.22-0.708 1.84-0.753 1.95-1.52 3.9-2.28 5.85-0.493 1.27-0.985 2.55-1.48 3.82-0.975 2.52-1.95 5.04-2.94 7.56-2.18 5.57-4.32 11.2-6.46 16.7-0.99-0.33-1.98-0.66-3-1v-2l2-1c0.355-2 0.686-4 1-6 0.938-2.06 0.938-2.06 2-4 1.3-2.96 2-4.73 2-8l1.44-1.38c2.01-2.09 2.18-3.8 2.56-6.62h2l-1-4c0.99-0.33 1.98-0.66 3-1-0.248-0.536-0.495-1.07-0.75-1.62-0.386-3.66 1.62-5.53 3.75-8.38z" fill="#DFF1F7"/>
<path transform="translate(985,1400)" d="m0 0v1c-0.904 0.266-1.81 0.531-2.74 0.805-1.77 0.53-1.77 0.53-3.57 1.07-1.17 0.348-2.34 0.696-3.55 1.05-3.25 0.958-3.25 0.958-6.14 3.07h-3c-0.309 0.784-0.619 1.57-0.938 2.38-1.06 2.62-1.06 2.62-2.06 4.62h-2l-3 9h-2c-0.125-3.38-0.125-3.38 0-7l2-2 2 1 0.375-2.38c0.625-2.62 0.625-2.62 2.62-4.62 0.557-0.804 1.11-1.61 1.69-2.44 5.73-6.35 12.3-5.95 20.3-5.56z" fill="#82CBE5"/>
<path transform="translate(600,1372)" d="m0 0 1 3c-0.94 0.528-0.94 0.528-1.9 1.07-5.69 3.26-5.69 3.26-8.66 8.81l-0.438 3.12h-2v-2l-2-1 2-2c0.618-2.58 1.02-5.17 1.44-7.79 0.186-0.731 0.371-1.46 0.562-2.21 3.21-1.61 6.44-1.06 10-1z" fill="#EAF5F9"/>
<path transform="translate(918,1445)" d="m0 0h2c-0.64 7.8-0.64 7.8-4 11-1.23 1.93-2.43 3.86-3.62 5.81-4.61 6.99-9.55 11.3-17.7 13.6-3.69 0.625-3.69 0.625-7.69 0.625v-2c0.69-0.0632 1.38-0.126 2.09-0.191 8.88-1.16 14.1-4.37 19.9-11.2 3.52-4.72 5.91-9.24 7.48-14.9 0.508-1.71 0.508-1.71 1.51-2.71z" fill="#D1EBF4"/>
<path transform="translate(756,1452)" d="m0 0h1c-0.0348 1.65-0.0348 1.65-0.0703 3.32-0.0188 1.45-0.037 2.91-0.0547 4.36-0.0168 0.721-0.0335 1.44-0.0508 2.19-0.0381 4.18 0.297 7.38 2.18 11.1-1 1-1 1-3.5 1.1-1.01-0.0116-2.02-0.0232-3.06-0.0352-1.01-0.00902-2.02-0.018-3.07-0.0273-0.782-0.0116-1.56-0.0232-2.37-0.0352 0.422-0.459 0.843-0.918 1.28-1.39 0.822-0.92 0.822-0.92 1.66-1.86 0.545-0.603 1.09-1.21 1.65-1.83 1.47-2.01 1.99-3.49 2.41-5.92h2v-11z" fill="#F0F8FA"/>
<path transform="translate(698,1435)" d="m0 0c-5.75 4-5.75 4-8 4l-1 3v-2h-2c-0.133 0.552-0.266 1.1-0.402 1.67-0.654 2.55-1.4 5.06-2.16 7.58-0.269 0.892-0.539 1.78-0.816 2.7-0.205 0.675-0.41 1.35-0.621 2.05h-2l-2-11h5l0.75-2.44 1.25-2.56c2-0.688 2-0.688 4-1l2-2c3-1 3-1 6 0z" fill="#84CCE5"/>
<path transform="translate(788,759)" d="m0 0c1.86 3.13 2.2 5.37 2 9-2.81 0.625-2.81 0.625-6 1l-3-2c0.256-2.34 0.593-4.68 1-7 2-1 2-1 6-1z" fill="#0098C6"/>
<path transform="translate(762,1390)" d="m0 0c2.57 3.86 2.02 5.52 1.54 10.1-0.0694 0.684-0.139 1.37-0.21 2.07-0.224 2.18-0.464 4.36-0.704 6.54-0.155 1.48-0.308 2.96-0.461 4.44-0.376 3.63-0.766 7.25-1.16 10.9h-1c-0.194-2.48-0.38-4.96-0.562-7.44-0.0561-0.707-0.112-1.41-0.17-2.14-0.129-1.8-0.203-3.61-0.268-5.42l1-1c0.0207-1.71-0.00899-3.42-0.0625-5.12-0.0557-4.74 0.479-8.42 2.06-12.9z" fill="#BDE3F1"/>
<path transform="translate(795,628)" d="m0 0c5.79-0.105 11.3 0.00749 17 1v2h-18l1-3z" fill="#68C1DF"/>
<path transform="translate(735,1457)" d="m0 0 2 1c-4.08 6.06-7.77 10.7-15 13h-3v-2c1.98-0.66 3.96-1.32 6-2v-2l3.31-1.19c3.6-1.52 5.03-3.21 6.69-6.81z" fill="#AEDDED"/>
<path transform="translate(838,1382)" d="m0 0 1 3c-0.99 0.33-1.98 0.66-3 1-1.15 2.65-1.15 2.65-2 5.81-1.17 4.01-2.27 6.99-5 10.2-0.25-6.62-0.25-6.62 2-10l-1-1 1.38-1.25c1.68-1.81 2.62-3.5 3.62-5.75h3v-2z" fill="#DAEFF6"/>
<path transform="translate(824,1412)" d="m0 0c1.42 4.27-0.346 7.2-1.94 11.2-0.291 0.75-0.581 1.5-0.881 2.27-0.719 1.85-1.45 3.7-2.18 5.54l-3-2 1-2h2l-1-4c0.99-0.33 1.98-0.66 3-1-0.248-0.536-0.495-1.07-0.75-1.62-0.386-3.66 1.62-5.53 3.75-8.38z" fill="#DCF0F6"/>
<path transform="translate(629,1371)" d="m0 0 12 1 1 3-14-1 1-3z" fill="#84CCE6"/>
<path transform="translate(756,1444)" d="m0 0c2 2 2 2 2.2 5.26-0.0232 1.28-0.0464 2.55-0.0703 3.87-0.018 1.28-0.0361 2.56-0.0547 3.88-0.0232 0.987-0.0464 1.97-0.0703 2.99-0.99-0.33-1.98-0.66-3-1-0.027-1.94-0.0464-3.87-0.0625-5.81-0.0116-1.08-0.0232-2.16-0.0352-3.27 0.0977-2.92 0.0977-2.92 1.1-5.92z" fill="#8ACEE7"/>
<path transform="translate(772,331)" d="m0 0h1v34h-1v-34z" fill="#016387"/>
<path transform="translate(759,1416)" d="m0 0h1c0.0539 1.79 0.0928 3.58 0.125 5.38 0.0232 0.998 0.0464 2 0.0703 3.02-0.195 2.6-0.195 2.6-2.2 4.6-1.56-3.13-1.4-6.58-1-10l2-3z" fill="#7FCAE4"/>
<path transform="translate(898,1401)" d="m0 0c-2.69 2.69-5.38 2.98-9 4l-3 2c-0.99-0.33-1.98-0.66-3-1 2.41-3.74 2.41-3.74 4.69-4.75 3.45-0.373 6.84-0.308 10.3-0.25z" fill="#9AD5EA"/>
<path transform="translate(772,274)" d="m0 0h1v30h-1v-30z" fill="#014966"/>
<path transform="translate(918,1445)" d="m0 0h2c-0.492 7.51-0.492 7.51-3.06 10l-1.94 1c-0.323-4.63 0.155-7.28 3-11z" fill="#A9DBEC"/>
<path transform="translate(762,1408)" d="m0 0-1 16h-1l-1-15c2-1 2-1 3-1z" fill="#F7FBFC"/>
<path transform="translate(957,1414)" d="m0 0h4l-3 9h-2c-0.125-6.75-0.125-6.75 1-9z" fill="#79C8E3"/>
<path transform="translate(865,1596)" d="m0 0 4 1z" fill="#024460"/>
<path transform="translate(729,1596)" d="m0 0 2 1z" fill="#010F20"/>
<path transform="translate(899,195)" d="m0 0 2 1z" fill="#031E3F"/>
<path transform="translate(775,188)" d="m0 0 2 1z" fill="#000002"/>
<path transform="translate(658,11)" d="m0 0 2 1z" fill="#003C88"/>
</svg>
